<svg xmlns="http://www.w3.org/2000/svg" width="150" height="22" viewBox="0 0 150 22"><g fill="none" fill-rule="evenodd"><path d="M136.18 17.55a1.74 1.74 0 0 0 2.15 2.71c.7-.27 1.37-.6 2-1l1-.68c.43-.29.82-.64 1.22-1s1-.87 1.45-1.32c.45-.45 1.1-1 1.67-1.48.72-.48 1.39-1.04 2-1.65.59-.61.92-1.43.94-2.28a2.9 2.9 0 0 0-1.4-2.37c-.57-.45-1.16-.85-1.78-1.2l-2.3-1.44c-1.79-1.13-3.58-2.25-5.35-3.4a2.33 2.33 0 1 0-2.35 4c1.34.87 2.7 1.71 4 2.56H132.54c-4.26 0-8.54-.06-12.81-.06-3.88 0-7.76.06-11.64.11-4.32.06-8.64.06-13 0H71.2c-2.81 0-55.62.07-58.43.18-1.47.06-3 .1-4.43.2-1.57.02-3.14.18-4.69.45a2.25 2.25 0 0 0-1 3.75c.43.47 1.05.72 1.68.69.94-.08 1.88-.21 2.8-.3 1.11-.11 2.2-.21 3.32-.3 2.08-.17 4.17-.28 6.25-.4 3.82-.21 57.65-.27 61.48-.35 8.47-.2 17-.23 25.44-.4 3.83-.08 7.67-.22 11.5-.33 4.1-.12 8.2-.19 12.3-.22 5.06 0 10.1-.06 15.15-.2l-.78.63c-.66.53-1.23 1.18-1.82 1.81-1.19 1.17-2.53 2.2-3.79 3.29Z" fill="#3CA200"></path><path d="M149.91 10.88a4.75 4.75 0 0 1-1.32 3.17c-.68.67-1.41 1.28-2.19 1.8l.06-.04-.14.12c-.66.56-1.03.88-1.32 1.17l-.08.08a15.46 15.46 0 0 1-.69.64l-.81.73c-.63.57-.94.82-1.36 1.1l-1.04.71c-.7.44-1.44.81-2.22 1.11l.09-.03-.08.04a3.2 3.2 0 0 1-2.07.27l-.22-.05a3.05 3.05 0 0 1-1.25-5.07l.06-.06 1.32-1.12.06-.05a35.78 35.78 0 0 0 2.45-2.18l.02-.01-1.5.03c-2.77.04-5.6.07-8.5.08h-1.74a537.06 537.06 0 0 0-17.6.38l-.29.01h-.14a556.06 556.06 0 0 1-6.92.18l-.57.01a1844.23 1844.23 0 0 1-13.31.2c-4.23.05-7.35.1-10.4.17l-3.99.03a6945.95 6945.95 0 0 1-14.5.05h-.58l-3.51.02h-.22a11354.7 11354.7 0 0 0-7.97.03c-18.75.06-29.06.13-30.67.22l-.7.04a446.08 446.08 0 0 0-5.52.35 180.68 180.68 0 0 0-6.16.6c-1.02.05-2-.35-2.66-1.06A3.55 3.55 0 0 1 3.3 8.63l.12-.03c1.62-.28 3.26-.45 4.83-.48L11.02 8c.3 0 .3 0 .59-.02l1.1-.04a2890.35 2890.35 0 0 1 35.06-.14H50.55l1.39-.01h2.31l11.14-.02h29.72a479.47 479.47 0 0 0 14.33-.03 1763.68 1763.68 0 0 1 10.29-.09h.87l5.55.03h.08l5.42.03h3.33l-.2-.13-.1-.05a3.63 3.63 0 0 1-1.66-1.9l-.07-.21a3.64 3.64 0 0 1 5.59-4.02l.02.01.13.09.4.26a445.3 445.3 0 0 0 7 4.4c.66.38 1.3.82 1.92 1.31l-.05-.04.1.06a4.22 4.22 0 0 1 1.84 3.17l.01.23Zm-2.6.02a1.6 1.6 0 0 0-.77-1.3l-.15-.1c-.51-.41-1.05-.78-1.63-1.12a173.04 173.04 0 0 1-3.51-2.19l-4.18-2.65-.18-.12-.09-.04a1.03 1.03 0 0 0-.48-.08l-.12.02a1.03 1.03 0 0 0-.77 1.32c.09.27.29.5.55.62l.16.1.86.55 2.34 1.48.8.52 3.69 2.39h-12.18l-5.44-.03h-.08l-5.53-.03h-1.43a565.43 565.43 0 0 0-11.06.11c-4.34.06-8.67.06-13.02 0H65.4l-9.78.02H52.4l-.93.01H47.78l-5.8.02c-17.04.04-27.95.08-29.16.13l-1.11.04-.59.02c-1.18.05-1.95.08-2.76.13-1.49.03-2.99.18-4.48.44l.08-.01-.08.03c-.23.1-.41.28-.5.5l-.05.12c-.08.33 0 .68.27.95.18.18.42.28.62.27.43-.03.78-.07 1.54-.16L7 12.73a183.01 183.01 0 0 1 8.92-.67l.7-.04c1.68-.1 11.87-.16 30.8-.22a29376.27 29376.27 0 0 1 7.97-.03h.22l3.23-.01h.57a88607.77 88607.77 0 0 0 18.73-.1 1107.28 1107.28 0 0 1 13.8-.21c5.82-.08 8.42-.12 11.64-.18a553.68 553.68 0 0 0 5.88-.16h.29a3533.5 3533.5 0 0 0 4.59-.15h.36l.37-.02c4.03-.12 8.14-.19 12.35-.22 5.26 0 10.26-.06 15.1-.2l3.86-.1-3 2.42-.3.24-.04.02-.06.05-.39.32c-.38.3-.7.62-1.35 1.33l-.05.05-.32.34c-.67.66-1.25 1.17-2.5 2.2l-.07.06-.34.28-.93.8.05-.05-.05.06a.44.44 0 0 0-.05.39l.03.08c.07.1.16.18.2.2.16.03.32 0 .45-.07l.2-.1c.62-.23 1.21-.53 1.73-.85l1-.69c.3-.2.54-.4 1.08-.88l.82-.73a24.9 24.9 0 0 0 .58-.55c.4-.4.84-.79 1.75-1.55l.11-.09c.65-.43 1.26-.94 1.79-1.46.36-.39.57-.9.58-1.34Z" fill="#FFF" fill-rule="nonzero"></path></g></svg>