<svg xmlns="http://www.w3.org/2000/svg" width="36" height="35" viewBox="0 0 36 35"><g fill="none" fill-rule="evenodd"><path d="M33.97 29.64c-2.29-2.08-4.7-4.48-7.17-7.12l-.01-.02a2.9 2.9 0 0 0-1.75-.85 2.19 2.19 0 0 0-1.77.6l-3.43 3.4c-.24-.13-.77-.47-1.82-1.35-.99-.84-2.2-1.96-3.4-3.17a61.48 61.48 0 0 1-3.19-3.38 11.77 11.77 0 0 1-1.36-1.81l3.43-3.41c.44-.45.66-1.09.6-1.77a2.87 2.87 0 0 0-.86-1.73L13.22 9c-2.49-2.26-4.9-4.65-7.17-7.13l-.02-.02a2.8 2.8 0 0 0-2.34-.84c-.66.1-1.22.48-1.54 1.05A10.2 10.2 0 0 0 1 7.09c.01 1.84.4 3.82 1.13 5.92.73 2.08 1.8 4.2 3.15 6.28 1.4 2.15 3.1 4.2 5.02 6.12 1.92 1.91 3.99 3.6 6.16 4.99a29.52 29.52 0 0 0 6.31 3.14c2.1.73 4.1 1.1 5.96 1.11h.09c1.89 0 3.55-.38 4.96-1.14.57-.31.95-.87 1.05-1.53.11-.81-.2-1.68-.85-2.33l-.02-.02.01.01Z" fill="#FFF" fill-rule="nonzero"></path><path d="m6.2 1.68.03.03C8.5 4.17 10.9 6.56 13.4 8.83l.02.02c.53.52.86 1.2.93 1.89a2.4 2.4 0 0 1-.67 1.96l-3.29 3.28.01.01c.2.32.54.78 1.07 1.4l.16.2c.84.97 1.96 2.17 3.17 3.37 1.2 1.2 2.4 2.31 3.39 3.15.73.61 1.25 1 1.6 1.22h.02l3.3-3.27c.45-.45 1.1-.7 1.78-.67l.19.01c.7.07 1.37.4 1.9.92l.02.03c2.46 2.63 4.86 5.03 7.15 7.1l.02.03c.65.65 1 1.5.93 2.34l-.02.2a2.3 2.3 0 0 1-1.17 1.7 10.53 10.53 0 0 1-5.08 1.18h-.1c-1.87 0-3.9-.39-6.03-1.13a29.77 29.77 0 0 1-6.37-3.16 38.16 38.16 0 0 1-6.2-5.02c-1.93-1.93-3.63-4-5.05-6.17A29.6 29.6 0 0 1 1.9 13.1a18.66 18.66 0 0 1-1.14-6c-.01-1.96.39-3.69 1.18-5.14.35-.64.98-1.06 1.73-1.17.9-.13 1.84.2 2.55.9Zm-2.47-.4c-.6.08-1.08.41-1.36.9a9.95 9.95 0 0 0-1.12 4.9c.01 1.81.39 3.78 1.11 5.84a29.11 29.11 0 0 0 3.13 6.23 37.81 37.81 0 0 0 4.98 6.08 37.66 37.66 0 0 0 6.12 4.96c2.09 1.35 4.2 2.4 6.27 3.1 2.07.73 4.05 1.1 5.87 1.11h.09c1.85 0 3.47-.37 4.84-1.11.5-.27.84-.76.92-1.35.1-.73-.18-1.52-.77-2.1l-.01-.02-.62-.57c-1.9-1.76-3.87-3.72-5.88-5.84l-.67-.72-.02-.01a2.66 2.66 0 0 0-1.6-.78c-.6-.06-1.17.13-1.56.52l-3.43 3.4-.14.14-.16-.09c-.38-.2-.98-.63-1.86-1.38-1-.84-2.22-1.97-3.42-3.18a61.75 61.75 0 0 1-3.2-3.4 12.38 12.38 0 0 1-1.4-1.85l-.08-.17.13-.13 3.43-3.41c.4-.4.58-.96.52-1.56a2.62 2.62 0 0 0-.78-1.58l-.01-.02a110.4 110.4 0 0 1-7.18-7.13l-.02-.02a2.54 2.54 0 0 0-2.12-.77Zm21.86 22.76a2 2 0 0 1 .52.3c1.4 1.14 2.44 2 3.14 2.62l.26.23.49.46c.42.42.94 1.06 1.55 1.9a2 2 0 0 1-.87 3.03l-.18.07c-1.52.61-3.25.25-4.4-.9l-2.2-2.2a4.08 4.08 0 0 1-.9-4.4 2 2 0 0 1 2.6-1.1Zm-2.13 1.3a3.58 3.58 0 0 0 .8 3.86l2.19 2.2a3.58 3.58 0 0 0 3.87.79l.17-.07a1.5 1.5 0 0 0 .74-2.15l-.06-.09-.02-.03c-.54-.74-1-1.3-1.37-1.7l-.13-.14a64.43 64.43 0 0 0-3.86-3.28 1.5 1.5 0 0 0-2.33.6ZM4.92 3.8c.2.06.39.16.54.31l5.13 5.13a2 2 0 0 1 0 2.83l-.59.58a2.25 2.25 0 0 1-3.5-.4L4.01 8.29a4.5 4.5 0 0 1-.55-3.48l.04-.15c.16-.62.79-1 1.42-.85Zm-.94.98-.03.14a4 4 0 0 0 .49 3.09l2.48 3.98a1.75 1.75 0 0 0 2.73.31l.58-.59a1.5 1.5 0 0 0 0-2.12L5.1 4.47a.67.67 0 0 0-1.12.3Z" fill="#000" fill-rule="nonzero"></path><path d="M16.5 15.37h-.06a.49.49 0 0 1-.44-.54 20.62 20.62 0 0 1 4.63-11 .49.49 0 0 1 .87.27.48.48 0 0 1-.12.35 19.8 19.8 0 0 0-4.4 10.48.47.47 0 0 1-.49.44ZM22 18.44h-.09a.5.5 0 0 1-.39-.58c.43-2.3 1.37-4.46 2.76-6.34a.48.48 0 0 1 .7-.1c.2.17.25.47.1.68a14.31 14.31 0 0 0-2.59 5.94.51.51 0 0 1-.49.4Z" fill="#000" fill-rule="nonzero"></path><path d="M33.53 31.8a.72.72 0 0 1-.38.56c-2.45 1.33-5.98 1.3-9.93-.06-4.08-1.42-8.33-4.2-11.97-7.82C7.6 20.87 4.42 16.71 3 12.65c-1.38-3.92-1.01-7.5.33-9.95a.73.73 0 0 1 .56-.37h.15c.36 0 .75.16 1.05.46 2.3 2.5 4.72 4.91 7.23 7.19.5.5.62 1.25.25 1.62L8.9 15.24c-.13.13-.33.42-.18.9.05.18.14.38.29.61.22.38.59.88 1.08 1.47a58.44 58.44 0 0 0 3.58 3.85 55.72 55.72 0 0 0 3.87 3.56c.6.49 1.1.85 1.48 1.08.23.14.43.23.6.28.5.15.8-.05.92-.18l3.66-3.63c.22-.23.54-.23.7-.22.33.03.67.2.93.46 1.35 1.45 2.85 1.94 4.16 3.23 1.1 1.09 2.01 3 3.07 3.96.34.34.52.8.46 1.19Z" fill="#FFF" fill-rule="nonzero"></path><path stroke="#979797" stroke-linecap="square" d="M4.5 2.15h0"></path><path d="m5.46 4.11 5.13 5.13a2 2 0 0 1 0 2.83l-.59.58a2.25 2.25 0 0 1-3.5-.4L4.01 8.29a4.5 4.5 0 0 1-.55-3.48l.04-.15a1.17 1.17 0 0 1 1.96-.54ZM26.1 24.34a64.37 64.37 0 0 1 3.9 3.31c.42.42.94 1.06 1.55 1.9a2 2 0 0 1-.87 3.03l-.18.07c-1.52.61-3.25.25-4.4-.9l-2.2-2.2a4.08 4.08 0 0 1-.9-4.4 2 2 0 0 1 3.1-.8Z" fill="#3CA200"></path></g></svg>