<?xml version="1.0" encoding="UTF-8"?> <svg xmlns="http://www.w3.org/2000/svg" xmlns:xlink="http://www.w3.org/1999/xlink" width="120" height="98" viewBox="0 0 120 98"><defs><path id="a" d="M0 0h120v98H0z"></path></defs><g fill="none" fill-rule="evenodd"><mask id="b" fill="#fff"><use xlink:href="#a"></use></mask><g mask="url(#b)"><path fill="#3CA200" d="m39.28 24.3 4.85 1.22-6.05 24.25-4.85-1.2z"></path><path d="m64.92 63.45-8.55-2.14c-2.08 3.48 2.15 6.72 5.85 5.8a20.6 20.6 0 0 0 5.16-2.28c-.87-.4-1.71-.86-2.45-1.39ZM60.46 23.9c-.35.62-1.29.1-.94-.52l1.64-2.96c.34-.62 1.28-.1.94.52l-1.64 2.96Zm3.66 7.4c-.7.01-.72-1.06-.01-1.08l3.72-.06c.72 0 .73 1.07.02 1.08l-3.73.06Zm-.84-4.2c-.6.38-1.16-.55-.55-.92l5.8-3.48c.61-.37 1.16.55.56.92l-5.8 3.49ZM48.56 48.9c-.08.34-.6.21-.52-.13L50.47 39c.09-.34.61-.21.53.13l-2.44 9.76Zm-6.23-24.15c.27.04.44-.61.69-1.59.33-1.3.76-3 1.97-4.6 1.62-2.15 4.5-3.18 6.68-1.17.52.48-.2 1.26-.72.79-1.71-1.57-3.87-.6-5.1 1.03a11.29 11.29 0 0 0-1.8 4.22c-.12.49-.23.93-.36 1.3.41-.13.84-.32 1.29-.57A18.08 18.08 0 0 0 48.74 21c1.64-1.72 4.18-2.58 5.86-.5a3.38 3.38 0 0 1-.81 5.12c-.94.57-2.18.95-3.55 1.12l7.87 1.96c.61.15.98.77.83 1.38l-1.62 6.48c-.15.6-.77.98-1.38.83l-1.32-.33c.04.24.04.5-.03.76l-3.46 13.9a1.83 1.83 0 0 1-2.2 1.33l-10.47-2.61-15.26-3.8a1.83 1.83 0 0 1-1.32-2.21l2.77-11.11c.17-.69 1.22-.43 1.05.26L22.92 44.7c-.1.4.15.8.54.9l9.95 2.48 3.82-15.35-12.87-3.21c-.61-.15-.98-.77-.83-1.38l1.62-6.48c.15-.6.77-.98 1.38-.83l7.86 1.96a8.96 8.96 0 0 1-2.6-2.65 3.38 3.38 0 0 1 1.68-4.9c2.47-1.05 4.3.9 4.94 3.2a17.45 17.45 0 0 0 1.9 4.56c.26.4.54.76.83 1.05.06-.38.16-.82.28-1.3.3-1.2.68-2.8.4-4.56a4.18 4.18 0 0 0-1.64-2.91c-.7-.47-1.58-.6-2.4-.4-.68.2-.96-.85-.27-1.03 1.1-.3 2.3-.11 3.27.53a5.2 5.2 0 0 1 2.1 3.64c.32 1.97-.1 3.69-.41 4.99-.24.98-.4 1.63-.14 1.72Zm2.64 1.8-1.65 6.6 12.88 3.21c.03 0 .06-.01.07-.04l1.62-6.48a.07.07 0 0 0-.04-.07l-12.88-3.22Zm-1.9 7.64-3.83 15.35 9.94 2.48c.4.1.8-.15.9-.54l3.47-13.9c.1-.4-.15-.8-.54-.9l-9.95-2.49Zm-4.88 15.1 5.73-23-3.73-.93-5.74 22.99 3.74.93Zm-.7-17.6 1.65-6.59-12.87-3.21a.07.07 0 0 0-.08.04l-1.61 6.48c-.01.03 0 .06.04.07l12.87 3.22Zm-1.87-9.36c1.21.75 2.65 1.39 4.18 1.82a8.36 8.36 0 0 1-.39-.56c-.89-1.38-1.56-3.2-2.02-4.86-.7-2.5-2.26-3-3.45-2.52-1.21.48-2.04 1.97-1.2 3.4.56.97 1.59 1.91 2.89 2.72Zm9.89 2.75c-.2.12-.42.23-.63.33 1.52.33 3.09.45 4.52.35a8.64 8.64 0 0 0 3.82-1.04c1.29-.79 1.47-2.39.56-3.52-1.26-1.55-3.1-.65-4.26.56a18.97 18.97 0 0 1-4 3.33h-.01Zm35.1 33.5c.05-.34.58-.26.53.09-.1.64-.25 1.24-.4 1.87-.09.35-.6.22-.52-.12.15-.62.3-1.2.39-1.83Zm-15.05 1.86c-.28-.22.07-.64.34-.4 1.34 1.12 3.38 2.2 5.19 1.9A2.7 2.7 0 0 0 73.32 60c.11-.34.62-.17.51.17a3.24 3.24 0 0 1-2.66 2.3c-1.98.32-4.15-.8-5.62-2.02Zm32.33 25.7c.3 1.29.28 2.69-.08 3.87-.18.59-.45 1.13-.8 1.58 1.07 1.63 3.43 3 5.44 2.62 1.72-.33 2.14-1.85 2-3.42a5.43 5.43 0 0 0-1.7-3.24c-.49-.5.28-1.26.77-.75.22.22.43.46.63.7.24-.07.5-.2.78-.37 1.27-.82 2.23-2.16 3.76-2.4-2.6-1.86-5.19-3.92-6.95-5.43l-.8.58c-1.7 1.22-3.15 2.25-3.45 3.7-.23 1.06.17 1.6.4 2.56Zm-.97-4.06c.7-1.14 1.96-2.05 3.39-3.07l.61-.44-.14-.13a28.92 28.92 0 0 1-1.55-1.53 4.2 4.2 0 0 0-2.17 2.85 7.41 7.41 0 0 0-.15 2.31Zm19.88 6.14c.68.19.4 1.22-.28 1.03-1.37-.38-3.43-1.55-5.65-3.03-2.52-1.33-3.57.66-5.36 1.8-.25.16-.5.3-.72.4.4.7.67 1.45.74 2.27.19 2.16-.58 4.14-2.88 4.57-2.38.45-5.1-1.03-6.43-2.94-1.8 1.2-4.34.62-5.8-.87a11.1 11.1 0 0 1-2.23-3.98c-1.23-3.42-2.1-6.72-1.8-9.8.27-2.9 1.56-5.58 4.5-7.94-.42-.18-.87-.35-1.35-.53a22.3 22.3 0 0 0-3.72 2.22 18.1 18.1 0 0 0-3.9 4.07c-2.5 3.3-6.52 8.96-11.16 8.84-1.94-.05-3.87-1.01-4.54-2.94-.77-2.23.38-3.92 1.71-5.63.76-.98 1.37-1.93 2.02-2.97 1.34-2.13 2.72-4.32 4.53-5.86a29.97 29.97 0 0 1-5.87-1.57 22.92 22.92 0 0 1-6.12 2.8c-4.47 1.11-9.41-2.8-7.2-7.1L2.97 47.98a3.85 3.85 0 0 1-2.8-4.65L10 3.87a3.85 3.85 0 0 1 4.66-2.8l65.46 16.32c2.05.51 3.3 2.6 2.8 4.66l-6.54 26.22a93.96 93.96 0 0 1 8.61-3.35c4.83-1.65 9.8-3.07 13-3.9 16.88-4.38 21.6 1.3 26.58 7.3.63.76 1.25 1.52 1.92 2.26.2.23.18.57-.05.77a.54.54 0 0 1-.76-.05c-.67-.75-1.3-1.53-1.94-2.29-4.76-5.74-9.26-11.16-25.47-6.95-3.2.82-8.12 2.23-12.94 3.88a89.05 89.05 0 0 0-9.29 3.68l-.72 2.9c3.71.77 7.39 1.66 11.18 1.99 0-.24-.06-.5-.2-.7-.4-.58.48-1.2.88-.61.28.4.4.9.4 1.39 1.74.09 3.5.05 5.28-.18 1.3-.18 2.85-.15 4.47-.12.4-.74.74-1.71.7-2.56-.04-.7 1.03-.76 1.07-.06.04.89-.22 1.82-.59 2.63 2.01.03 3.38.1 4.61-1.86.37-.6 1.28-.03.91.57-.23.36-.49.7-.79 1l.64-.15c1.68-.46 2.94-1.38 3.3-3.22.12-.7 1.18-.5 1.05.2-.45 2.34-2 3.5-4.07 4.06-1.96.54-4.15.5-6.18.46-1.7-.04-3.44-.1-4.98.12-2.25.3-4.45.3-6.62.1-4-.35-7.9-1.32-11.9-2.12-2-.4-4.57-.82-6.8-.5-2.1.32-3.91 1.32-4.59 3.7-.7 2.48.36 4.32 2.14 5.69 1.88 1.44 4.54 2.39 6.87 3 2.36.64 4.57.77 6.83.9 2.8.17 5.37.41 8.1 1.09 4.89 1.2 7.8 2.84 11.28 6.92a37.85 37.85 0 0 0 3.2 3.4 96.06 96.06 0 0 0 8.98 7.03c1.82 1.25 4.36 3 6.32 3.54v-.02ZM91.97 70.24C89 72.47 87.71 75 87.45 77.77c-.27 2.88.56 6.04 1.74 9.33a10.14 10.14 0 0 0 2 3.59c1.79 1.84 4.78 1.63 5.59-1 .3-1 .32-2.2.06-3.32-.58-2.5-1.5-4.1-.82-6.87a5.2 5.2 0 0 1 2.46-3.41l-.99-1.15c-1.53-1.8-2.85-3.34-5.52-4.7ZM76 67.1c-2.09 1.4-3.64 3.86-5.14 6.25a37.3 37.3 0 0 1-2.08 3.05c-1.06 1.37-2.17 2.81-1.54 4.63.52 1.48 2.07 2.18 3.55 2.22 4.12.1 8.06-5.48 10.27-8.42a19.26 19.26 0 0 1 7.04-6.11 24 24 0 0 0-1.32-.36c-2.66-.66-5.18-.9-7.9-1.05-.96-.06-1.91-.11-2.86-.2L76 67.1Zm-1.74-14.8 7.6-30.52a2.78 2.78 0 0 0-2-3.35L14.4 2.11a2.78 2.78 0 0 0-3.35 2.01L1.2 43.6a2.78 2.78 0 0 0 2.01 3.35l60 14.96a5.72 5.72 0 0 1-1.16-5.55c.82-2.9 2.97-4.1 5.47-4.47 2.23-.33 4.71.02 6.74.41Z" fill="#000"></path></g></g></svg> 