<svg xmlns="http://www.w3.org/2000/svg" width="23" height="37" viewBox="0 0 23 37"><g fill-rule="nonzero" fill="none"><path d="M19.32 4.16a10.8 10.8 0 0 1 3.15 7.6c0 4.06-2.83 8.5-5.48 12.3-2.26 3.23-4.3 6.04-5.25 7.06C9.65 28.92 1 19.28 1 11.77A10.8 10.8 0 0 1 11.74 1c2.84 0 5.57 1.14 7.58 3.16Z" fill="#3CA200"></path><path d="m15.84 27.95.17.05c2.55.84 4.19 2.38 4.19 4.03 0 2.59-3.9 4.69-8.46 4.69h-.29c-4.44-.1-8.17-2.16-8.17-4.69 0-1.65 1.63-3.19 4.19-4.03l.16-.05.1.13a63.71 63.71 0 0 0 3.74 4.23c.15.14.39.14.54 0l1.2-1.27c.8-.9 1.66-1.88 2.53-2.96l.1-.13Zm-8.38.58-.09.03c-2.14.77-3.5 2.04-3.59 3.32v.15c0 2.23 3.63 4.19 7.96 4.19s7.96-1.96 7.96-4.19c0-1.34-1.37-2.67-3.6-3.47l-.09-.03-.32.4a64.04 64.04 0 0 1-3.33 3.73.88.88 0 0 1-1.25 0c-.32-.33-.69-.71-1.2-1.28-.7-.75-1.4-1.57-2.13-2.45l-.32-.4ZM11.74.75a10.98 10.98 0 0 1 10.98 11.02c0 3.49-1.76 7.05-5.52 12.43-2.64 3.77-4.4 6.16-5.28 7.1l-.18.18-.19-.19c-2-2.12-4.21-4.8-6.17-7.72C2.45 19.2.75 15.17.75 11.77A11.04 11.04 0 0 1 11.74.75Zm0 .5A10.48 10.48 0 0 0 1.25 11.77c0 3.28 1.67 7.23 4.54 11.52 1.8 2.7 3.84 5.18 5.7 7.2l.24.26.1-.1c.9-1.04 2.47-3.2 4.7-6.38l.26-.36c3.7-5.3 5.43-8.79 5.43-12.14A10.54 10.54 0 0 0 11.74 1.25Zm0 4.31c2.04 0 3.52.43 4.64 1.55a6.59 6.59 0 0 1 1.92 4.66c0 1.67-.64 3.05-1.94 4.35-1.38 1.38-3.01 2.23-4.62 2.23a6.55 6.55 0 0 1-6.57-6.58c0-1.75.7-3.42 1.92-4.66C8.21 6 9.7 5.56 11.74 5.56Zm0 .5c-1.93 0-3.29.4-4.3 1.4a6.09 6.09 0 0 0 4.3 10.39c1.46 0 2.98-.79 4.27-2.08a5.44 5.44 0 0 0 1.8-4c0-1.62-.65-3.16-1.79-4.3-1-1.01-2.36-1.4-4.28-1.4Z" fill="#000"></path><path d="M11.74 36.47c-4.45 0-8.21-2.03-8.21-4.44 0-1.52 1.56-2.98 4.01-3.79 1.97 2.44 3.58 4.07 3.75 4.24.25.25.65.25.9 0 .17-.17 1.78-1.8 3.74-4.24 2.45.8 4.02 2.27 4.02 3.8 0 2.4-3.76 4.43-8.21 4.43ZM16.2 7.29C15.02 6.1 13.41 5.8 11.74 5.8c-1.68 0-3.28.29-4.47 1.48a6.34 6.34 0 0 0 4.47 10.81c1.67 0 3.26-.97 4.44-2.15a5.7 5.7 0 0 0 1.87-4.18c0-1.68-.66-3.3-1.85-4.48Z" fill="#FFF"></path><path d="M11.6 14.33c-.36 0-.73-.08-1.06-.23a1.8 1.8 0 0 1-.95-1.01 3.09 3.09 0 0 1 .18-2.35c.25-.54.7-.95 1.27-1.14a2.42 2.42 0 0 1 2.21.31c.6.44.98 1.11 1.04 1.85a2.62 2.62 0 0 1-1.8 2.4c-.28.1-.58.16-.88.17Zm.26-4.07c-.2 0-.4.03-.59.1-.36.12-.65.38-.8.73a2.3 2.3 0 0 0-.15 1.74c.1.25.3.45.54.56.43.18.9.2 1.34.05.73-.24 1.24-.9 1.28-1.66a1.7 1.7 0 0 0-.71-1.23c-.27-.19-.59-.3-.91-.3Z" fill="#000"></path></g></svg>