<svg xmlns="http://www.w3.org/2000/svg" xmlns:xlink="http://www.w3.org/1999/xlink" width="124px" height="27px" viewBox="0 0 124 27"><title>swift</title><g id="Pages" stroke="none" stroke-width="1" fill="none" fill-rule="evenodd"><g id="Group-41-Copy" transform="translate(-838, -462)"><g id="Group-20-Copy-2" transform="translate(80, 100)"><g id="Group-20" transform="translate(757.7277, 54.098)"><g id="swift" transform="translate(1, 308)"><rect id="Rectangle" x="0" y="0" width="122.142857" height="26"></rect><g id="logo" transform="translate(0, 0.1429)" fill="#FFFFFF" fill-rule="nonzero"><g id="Group" transform="translate(26.6143, 4.8471)"><path d="M6.89142857,17.3571429 C5.67,17.3571429 4.57714286,17.1514286 3.6,16.7142857 C1.66709018,15.9081197 0.299998115,14.1455474 0,12.0728571 L2.89285714,11.6357143 C3.12428571,12.6257143 3.63857143,13.3971429 4.39714286,13.9371429 C5.68384511,14.7689062 7.28139705,14.9632671 8.73,14.4642857 C9.27,14.2842857 9.69428571,14.0142857 10.0157143,13.6542857 C10.35,13.2942857 10.5042857,12.8571429 10.5042857,12.3557143 C10.5218607,11.9203768 10.359052,11.4970743 10.0542857,11.1857143 C9.88465717,11.0150693 9.68945481,10.8719209 9.47571429,10.7614286 C9.24428571,10.6328571 8.96142857,10.5171429 8.65285714,10.4271429 L4.35857143,9.15428571 C3.97285714,9.05142857 3.58714286,8.89714286 3.15,8.71714286 C2.71314377,8.52843379 2.30603193,8.27723712 1.94142857,7.97142857 C1.55571429,7.65 1.24714286,7.23857143 1.00285714,6.75 C0.738906653,6.16939928 0.611363593,5.53608201 0.63,4.89857143 C0.63,3.81857143 0.912857143,2.91857143 1.45285714,2.19857143 C2.00571429,1.46571429 2.73857143,0.912857143 3.65142857,0.552857143 C4.63550096,0.175365046 5.68335763,-0.00800987112 6.73714286,0.0128571429 C7.86857143,0.0257142857 8.88428571,0.231428571 9.78428571,0.617142857 C11.5982867,1.36529889 12.9163766,2.97307886 13.2942857,4.89857143 L10.2985714,5.41285714 C10.0996317,4.30956136 9.34657789,3.38646313 8.30571429,2.97 C7.30159906,2.53722979 6.16995688,2.50502859 5.14285714,2.88 C4.70624056,3.03136718 4.31335889,3.28740243 3.99857143,3.62571429 C3.71571429,3.94714286 3.56142857,4.32 3.56142857,4.75714286 C3.56142857,5.16857143 3.69,5.50285714 3.94714286,5.76 C4.17857143,6.01714286 4.48714286,6.22285714 4.84714286,6.37714286 C5.23285714,6.51857143 5.59285714,6.64714286 5.97857143,6.75 L8.96142857,7.57285714 C9.37285714,7.70142857 9.82285714,7.83 10.3371429,8.02285714 C10.8514286,8.20285714 11.3271429,8.46 11.8028571,8.79428571 C12.2657143,9.12857143 12.6642857,9.56571429 12.96,10.1057143 C13.2685714,10.6457143 13.4228571,11.3271429 13.4228571,12.1628571 C13.4491328,13.7092886 12.7075908,15.1682965 11.4428571,16.0585714 C10.8257143,16.4957143 10.1314286,16.8171429 9.34714286,17.0357143 C8.56285714,17.2542857 7.74,17.3571429 6.89142857,17.3571429 L6.89142857,17.3571429 Z M17.1514286,17.01 L13.3328571,4.48714286 L16.0585714,4.51285714 L18.5014286,12.5228571 L20.97,4.51285714 L23.3228571,4.51285714 L25.7914286,12.5228571 L28.2342857,4.51285714 L30.9728571,4.51285714 L27.1542857,17.01 L24.9814286,17.01 L22.1528571,8.40857143 L19.3242857,17.01 L17.1514286,17.01 Z M31.8342857,2.61 L31.8342857,0.0771428571 L34.6242857,0.0771428571 L34.6242857,2.61 L31.8342857,2.61 Z M31.8342857,17.01 L31.8342857,4.51285714 L34.6242857,4.51285714 L34.6242857,17.01 L31.8342857,17.01 Z M37.7357143,17.01 L37.7357143,4.32 L37.7742857,3.26571429 C37.7871429,2.88 37.8514286,2.50714286 37.9671429,2.13428571 C38.0828571,1.74857143 38.2757143,1.40142857 38.5585714,1.10571429 C38.9057143,0.707142857 39.2914286,0.437142857 39.7157143,0.282857143 C40.1271429,0.128571429 40.5257143,0.0514285714 40.9242857,0.0257142857 L41.9914286,0 L43.5471429,0 L43.5471429,2.26285714 L42.1071429,2.26285714 C41.5671429,2.26285714 41.1685714,2.39142857 40.9114286,2.67428571 C40.6542857,2.93142857 40.5257143,3.27857143 40.5257143,3.70285714 L40.5257143,17.01 L37.7357143,17.01 Z M35.7171429,6.69857143 L35.7171429,4.51285714 L43.56,4.51285714 L43.56,6.69857143 L35.7171429,6.69857143 Z" id="Shape"></path><path d="M51.2742857,17.01 C50.4514286,17.1642857 49.6414286,17.2414286 48.8571429,17.2157143 C48.1284447,17.2079987 47.4081008,17.0595642 46.7357143,16.7785714 C46.1296286,16.5202276 45.6304442,16.0618855 45.3214286,15.48 C45.0388046,14.9666188 44.8802896,14.3942034 44.8585714,13.8085714 C44.8328571,13.2557143 44.8328571,12.6128571 44.8328571,11.9057143 L44.8328571,1.04142857 L47.61,1.04142857 L47.61,11.7514286 C47.61,12.24 47.61,12.6771429 47.6357143,13.0628571 C47.6357143,13.4485714 47.7257143,13.7571429 47.8671429,13.9885714 C48.15,14.4514286 48.5871429,14.7085714 49.2042857,14.76 C49.8085714,14.8114286 50.49,14.7857143 51.2742857,14.6828571 L51.2742857,17.01 L51.2742857,17.01 Z M42.57,6.69857143 L42.57,4.51285714 L51.2742857,4.51285714 L51.2742857,6.69857143 L42.57,6.69857143 Z M55.9414286,17.01 L55.9414286,0.347142857 L58.7314286,0.347142857 L58.7314286,14.4 L66.0857143,14.4 L66.0857143,17.01 L55.9414286,17.01 Z M66.8442857,2.61 L66.8442857,0.0771428571 L69.6214286,0.0771428571 L69.6214286,2.61 L66.8571429,2.61 L66.8442857,2.61 Z M66.8442857,17.01 L66.8442857,4.51285714 L69.6214286,4.51285714 L69.6214286,17.01 L66.8571429,17.01 L66.8442857,17.01 Z M80.2928571,17.01 L80.2928571,10.9928571 C80.2928571,10.6071429 80.2671429,10.17 80.2157143,9.69428571 C80.1570537,9.21479432 80.0270456,8.74676539 79.83,8.30571429 C79.6418305,7.86962779 79.339859,7.49216344 78.9557143,7.21285714 C78.57,6.93 78.0557143,6.78857143 77.3742857,6.78857143 C77.0271429,6.78857143 76.68,6.84 76.3328571,6.95571429 C75.9857143,7.08428571 75.6642857,7.26428571 75.3942857,7.54714286 C75.1114286,7.83 74.88,8.21571429 74.7128571,8.70428571 C74.5457143,9.20571429 74.4557143,9.82285714 74.4557143,10.5814286 L72.7971429,9.87428571 C72.7971429,8.82 73.0028571,7.85571429 73.4271429,6.99428571 C74.273887,5.14331174 76.1794776,4.01122701 78.21,4.15285714 C79.1228571,4.15285714 79.8814286,4.29428571 80.4857143,4.60285714 C81.09,4.91142857 81.5785714,5.29714286 81.9257143,5.78571429 C82.2857143,6.26142857 82.5428571,6.77571429 82.71,7.31571429 C83.0039997,8.18472469 83.1432536,9.0985782 83.1214286,10.0157143 L83.1214286,17.01 L80.2928571,17.01 L80.2928571,17.01 Z M71.6271429,17.01 L71.6271429,4.51285714 L74.1214286,4.51285714 L74.1214286,8.38285714 L74.4557143,8.38285714 L74.4557143,17.01 L71.6271429,17.01 Z M90.1671429,17.3571429 C89.0037933,17.3831896 87.8544669,17.0991861 86.8371429,16.5342857 C85.8941039,15.9987843 85.119304,15.2106258 84.6,14.2585714 C84.0469904,13.2278582 83.7680741,12.0723479 83.79,10.9028571 C83.79,9.52714286 84.0471429,8.34428571 84.5871429,7.34142857 C85.6020192,5.30158706 87.7238883,4.0516499 90,4.15285714 C91.2857143,4.15285714 92.3914286,4.46142857 93.2914286,5.05285714 C94.2185847,5.67888166 94.9284228,6.57741094 95.3228571,7.62428571 C95.76,8.73 95.9271429,10.0285714 95.8242857,11.5328571 L93.0471429,11.5328571 L93.0471429,10.5042857 C93.0471429,9.15428571 92.8028571,8.15142857 92.3271429,7.53428571 C91.8642857,6.89142857 91.1185714,6.59571429 90.1157143,6.59571429 C88.9714286,6.59571429 88.1228571,6.94285714 87.57,7.65 C86.9532305,8.56055458 86.6590271,9.65137025 86.7342857,10.7485714 C86.7342857,12.0214286 87.0171429,12.9985714 87.57,13.6928571 C88.1228571,14.3871429 88.9328571,14.7214286 90,14.7214286 C90.6814286,14.7214286 91.2857143,14.58 91.7742857,14.2714286 C92.2757143,13.9628571 92.6485714,13.5257143 92.9314286,12.9471429 L95.6828571,13.7828571 C95.2368141,14.869975 94.4582251,15.78808 93.4585714,16.4057143 C92.4685714,17.0357143 91.3628571,17.3442857 90.1542857,17.3442857 L90.1671429,17.3571429 Z M85.86,11.5457143 L85.86,9.42428571 L94.4742857,9.42428571 L94.4742857,11.5328571 L85.86,11.5328571 L85.86,11.5457143 Z" id="Shape"></path></g><g id="Group"><path d="M11.2371429,0 L23.7471429,0 L15.4285714,8.29285714 C13.508501,10.2040377 10.9119561,11.2805412 8.20285714,11.2885714 L0,11.3142857 L11.2371429,0 Z M11.2371429,25.7142857 L23.7471429,25.7142857 L15.4285714,17.4214286 C13.508501,15.510248 10.9119561,14.4337445 8.20285714,14.4257143 L0,14.4 L11.2371429,25.7142857 Z" id="Shape"></path></g></g></g></g></g></g></g></svg>