<svg xmlns="http://www.w3.org/2000/svg" xmlns:xlink="http://www.w3.org/1999/xlink" width="125px" height="31px" viewBox="0 0 125 31"><title>eagle</title><defs><path d="M5.51422716,1.00025516 L40.8801736,7.41547334 C42.1076032,7.63812337 43,8.70695983 43,9.95441985 L43,23.4196205 C43,24.8447247 41.8447247,26 40.4196205,26 L16.6580814,26 C15.7405846,26 14.8920928,25.5128102 14.4295699,24.7204259 L2.8251625,4.84000707 C2.10674751,3.60923411 2.52209571,2.02910508 3.75286867,1.31069009 C4.284206,1.00054297 4.90887376,0.890446868 5.51422716,1.00025516 Z" id="path-1"></path></defs><g id="Pages" stroke="none" stroke-width="1" fill="none" fill-rule="evenodd"><g id="Group-41-Copy" transform="translate(-1005, -460)"><g id="Group-20-Copy-2" transform="translate(80, 100)"><g id="Group-20" transform="translate(757.7277, 54.098)"><g id="eagle" transform="translate(167.468, 306)"><rect id="Rectangle" x="2" y="0" width="122.142857" height="30"></rect><g id="Group-65"><g id="Group-11"><g id="Rectangle"><use fill-opacity="0.102245411" fill="#000000" xlink:href="#path-1"></use><use fill="#F9F7F5" xlink:href="#path-1"></use><use fill="#FFFFFF" xlink:href="#path-1"></use></g><path d="M18.1960041,12.9309357 C19.6187762,15.2999321 20.9863596,17.6987107 22.457275,20.039433 C23.4596737,21.6369851 24.9305892,22.3453467 26.8251397,22.3453467 L33.8419772,22.3454817 C35.2235331,22.3496583 36.1539006,22.4762777 38,26 L27.4797062,26 C24.6067634,26 22.8739953,24.2382065 21.5891297,22.0285506 C20.8347538,20.7246726 20.149266,19.8171354 19.6739649,19.2250119 C19.1479802,18.5662798 18.9842181,18.5185235 18.3093577,18.5164042 L14.896034,18.5166503 C13.5732409,18.5166503 12.6948145,17.6837568 11,15.1405916 C12.191919,15.9568976 13.0324309,16.2222976 13.5215488,15.9136696 C15.085476,14.9282214 16.6391092,13.926437 18.1960041,12.9309357 Z M29.2227814,11 C27.579646,12.2277263 25.9329879,13.4486667 24.2932447,14.6761416 C23.8660869,14.9980899 23.7110889,15.5851869 24.1865205,16.2156375 C24.3759625,16.4611827 24.5689271,16.7099952 24.7720685,16.9454874 C25.1820043,17.4167232 25.6711352,17.5710372 26.5048366,17.5660107 C27.0181044,17.5627435 27.8241462,17.5560833 28.4648829,17.5494232 L31.125772,17.5469629 C32.3391293,17.5593879 33.1959187,17.7595655 34.8479825,20.9136696 L27.6898929,20.9136696 C25.7952119,20.9136696 24.3209042,20.2036744 23.3217673,18.606248 C21.9818434,16.474503 20.7278992,14.2980221 19.4396413,12.1347357 L21.223945,11 L29.2227814,11 Z" id="Combined-Shape" fill="#3CA200" transform="translate(24.5, 18.5) rotate(-180) translate(-24.5, -18.5)"></path></g><g id="Eagle-Elite" transform="translate(47.7459, 7.3276)" fill="#FFFFFF" fill-rule="nonzero"><polygon id="Path" points="0 18.5787326 0 0 6.74640228 0 6.74640228 2.00882546 2.25267133 2.00882546 2.25267133 8.19786577 6.51416812 8.19786577 6.51416812 10.2066912 2.25267133 10.2066912 2.25267133 16.5699072 6.74640228 16.5699072 6.74640228 18.5787326"></polygon><path d="M11.1588513,18.7296848 C10.2376558,18.7296848 9.53514746,18.4993859 9.0513263,18.0387882 C8.56750514,17.5781905 8.28688886,16.8485881 8.20947748,15.8499813 C8.20173634,15.6641939 8.19593048,15.474536 8.19205991,15.2810076 C8.18818934,15.0874791 8.19012463,14.9016918 8.19786577,14.7236456 C8.23657146,14.1508013 8.35075325,13.6437568 8.54041115,13.2025119 C8.73006905,12.761267 9.03971459,12.3625983 9.46934778,12.006506 C9.89898097,11.6504136 10.4776311,11.3098035 11.2052981,10.9846757 C11.6000962,10.8143706 12.0045707,10.6518067 12.4187216,10.4969839 C12.8328725,10.3421612 13.2566998,10.1950795 13.6902036,10.055739 L13.6902036,7.55922183 C13.6902036,7.0715301 13.5818277,6.7193083 13.3650758,6.50255642 C13.1483239,6.28580454 12.7767492,6.1774286 12.2503518,6.1774286 C11.7936246,6.1774286 11.435597,6.27032226 11.1762688,6.45610958 C10.9169407,6.64189691 10.7756649,6.96702473 10.7524415,7.43149305 C10.7369592,7.62502151 10.7272828,7.87080266 10.7234122,8.1688365 C10.7195417,8.46687033 10.7214769,8.75329246 10.7292181,9.02810288 C10.7369592,9.3029133 10.7447004,9.50224762 10.7524415,9.62610584 L8.546217,9.62610584 C8.53847587,9.34742485 8.53073473,9.0377793 8.52299359,8.69716921 C8.51525245,8.35655911 8.51525245,8.02756072 8.52299359,7.71017404 C8.55395814,6.95928359 8.69523392,6.34386308 8.94682093,5.86391248 C9.19840793,5.38396189 9.59707657,5.0298048 10.1428268,4.80144121 C10.6885771,4.57307762 11.4181794,4.45889583 12.3316338,4.45889583 C13.2528293,4.45889583 13.9746904,4.58081876 14.4972173,4.82466463 C15.0197442,5.06851049 15.3874482,5.45363214 15.6003295,5.98002956 C15.8132109,6.50642699 15.9196515,7.19151775 15.9196515,8.03530186 L15.9080398,18.5787326 L13.6553685,18.5787326 L13.6553685,17.2317745 L13.3302407,17.2317745 C13.1057476,17.7194662 12.8444842,18.0910409 12.5464504,18.3464985 C12.2484165,18.601956 11.7858835,18.7296848 11.1588513,18.7296848 Z M11.8903889,17.0692106 C12.3084104,17.0692106 12.6683733,16.9647052 12.9702777,16.7556945 C13.2721821,16.5466837 13.5044163,16.2447793 13.6669802,15.8499813 L13.6902036,11.7858835 C13.3805581,11.8787772 13.0631714,11.9890884 12.7380436,12.1168172 C12.4129157,12.244546 12.0684351,12.4129157 11.7046015,12.6219265 C11.2014275,12.8928663 10.8724292,13.2025119 10.7176064,13.5508631 C10.5627836,13.8992143 10.4776311,14.2901418 10.4621488,14.7236456 C10.4544077,14.9326563 10.4524724,15.106832 10.456343,15.2461725 C10.4602135,15.3855129 10.4660194,15.5364652 10.4737605,15.6990291 C10.5124662,16.1247917 10.653742,16.4595959 10.8975879,16.7034418 C11.1414337,16.9472877 11.4723674,17.0692106 11.8903889,17.0692106 Z" id="Shape"></path><path d="M21.8996811,22.6892772 C20.7307691,22.6892772 19.8095737,22.5189722 19.1360946,22.1783621 C18.4626155,21.837752 18.0832997,21.334578 17.9981472,20.66884 C17.9826649,20.5604641 17.9710532,20.4501529 17.9633121,20.3379064 C17.955571,20.2256599 17.955571,20.1230898 17.9633121,20.0301961 C17.9942767,19.6121746 18.1607111,19.2734998 18.4626155,19.0141717 C18.7645199,18.7548435 19.1167417,18.5942149 19.519281,18.5322858 L19.519281,18.1839345 C19.0780361,18.0678175 18.7606494,17.9033183 18.5671209,17.690437 C18.3735924,17.4775557 18.2574754,17.2201628 18.2187697,16.9182584 C18.2110285,16.8485881 18.207158,16.7673062 18.207158,16.6744125 C18.207158,16.5815189 18.2110285,16.4886252 18.2187697,16.3957315 C18.2497342,16.0783449 18.3948806,15.8093403 18.6542087,15.5887178 C18.9135369,15.3680954 19.2406,15.2306902 19.635398,15.1765022 L19.635398,14.8165393 C19.1012595,14.576564 18.710332,14.216601 18.4626155,13.7366504 C18.2148991,13.2566998 18.0678175,12.6296676 18.0213706,11.8555538 C18.0136295,11.592355 18.0058884,11.2788389 17.9981472,10.9150054 C17.9904061,10.5511719 17.9865355,10.1757267 17.9865355,9.78866975 C17.9865355,9.40161282 17.9904061,9.03390874 17.9981472,8.6855575 C18.0058884,8.33720626 18.0136295,8.043043 18.0213706,7.8030677 C18.0832997,6.99798929 18.2497342,6.34966893 18.5206741,5.85810663 C18.7916139,5.36654433 19.1980237,5.01045195 19.7399034,4.7898295 C20.2817831,4.56920705 20.9900973,4.45889583 21.8648459,4.45889583 C22.7473357,4.45889583 23.4595205,4.57114234 24.0014002,4.79563536 C24.5432799,5.02012838 24.9458191,5.38783246 25.2090178,5.89874761 L25.5689808,5.89874761 C25.6154276,5.48072612 25.7799268,5.16721001 26.0624784,4.95819927 C26.3450299,4.74918853 26.7301516,4.64468315 27.2178433,4.64468315 L27.2178433,6.38643934 L26.9391623,6.38643934 C26.5521054,6.38643934 26.2463304,6.50642699 26.0218374,6.74640228 C25.7973444,6.98637758 25.6850978,7.37343451 25.6850978,7.90757307 L25.6850978,8.49977017 C25.6850978,8.56169928 25.6870331,8.72813376 25.6909037,8.99907361 C25.6947743,9.27001346 25.6967096,9.58546486 25.6967096,9.9454278 C25.6967096,10.3053907 25.6947743,10.6595478 25.6909037,11.0078991 C25.6870331,11.3562503 25.6773567,11.6388019 25.6618744,11.8555538 C25.6154276,12.6683733 25.4586695,13.3186289 25.1916003,13.8063207 C24.924531,14.2940124 24.5219918,14.6462342 23.9839826,14.8629861 C23.4459735,15.079738 22.735724,15.1881139 21.8532342,15.1881139 C21.2029786,15.1803728 20.7249633,15.2423019 20.4191883,15.3739012 C20.1134133,15.5055006 19.9605259,15.7145113 19.9605259,16.0009335 L19.9605259,16.1170505 C19.9605259,16.3028379 20.0243902,16.4499195 20.152119,16.5582954 C20.2798478,16.6666714 20.4869233,16.7460181 20.7733454,16.7963355 C21.0597675,16.8466529 21.4545656,16.8795527 21.9577396,16.895035 C23.3279211,16.9337407 24.3439456,17.146622 25.0058129,17.5336789 C25.6676803,17.9207358 26.0489314,18.5361564 26.1495662,19.3799405 C26.1650484,19.4960575 26.1727896,19.6237863 26.1727896,19.7631268 C26.1727896,19.9024673 26.1650484,20.0379372 26.1495662,20.1695366 C26.0798959,20.7965688 25.8689499,21.2958723 25.5167281,21.6674469 C25.1645063,22.0390216 24.6826204,22.3022203 24.0710704,22.4570431 C23.4595205,22.6118658 22.735724,22.6892772 21.8996811,22.6892772 Z M21.9577396,21.0984732 C22.4299491,21.0984732 22.830553,21.0655734 23.1595514,20.9997737 C23.4885498,20.933974 23.7478779,20.8217275 23.9375358,20.6630342 C24.1271937,20.5043408 24.2452461,20.2933948 24.2916929,20.0301961 C24.3226575,19.9295613 24.3362044,19.8327971 24.3323339,19.7399034 C24.3284633,19.6470097 24.3149163,19.5502455 24.2916929,19.4496107 C24.2452461,19.2173766 24.1368701,19.0315892 23.9665651,18.8922487 C23.79626,18.7529082 23.5485436,18.6522734 23.2234158,18.5903443 C22.898288,18.5284152 22.4763959,18.4974507 21.9577396,18.4974507 C21.3307074,18.4897095 20.8314039,18.5458328 20.4598293,18.6658204 C20.0882546,18.7858081 19.8753733,19.0586832 19.8211854,19.4844458 C19.8057031,19.6160452 19.7979619,19.7205506 19.7979619,19.7979619 C19.7979619,19.8753733 19.8057031,19.9605259 19.8211854,20.0534195 C19.8598911,20.3243594 19.968267,20.5353054 20.1463132,20.6862576 C20.3243594,20.8372098 20.5682052,20.9436505 20.8778508,21.0055796 C21.1874963,21.0675087 21.5474593,21.0984732 21.9577396,21.0984732 Z M21.8648459,13.4695811 C22.4144668,13.4695811 22.8092649,13.3612052 23.0492402,13.1444533 C23.2892155,12.9277014 23.4246854,12.5832208 23.4556499,12.1110113 C23.4711322,11.871036 23.4846792,11.5439729 23.4962909,11.129822 C23.5079026,10.7156711 23.5137085,10.2744262 23.5137085,9.80608731 C23.5137085,9.33774843 23.5079026,8.89843881 23.4962909,8.48815846 C23.4846792,8.07787812 23.4711322,7.7527503 23.4556499,7.512775 C23.4324265,7.04830669 23.3008272,6.70963187 23.0608519,6.49675056 C22.8208766,6.28386925 22.4222079,6.1774286 21.8648459,6.1774286 C21.3152251,6.1774286 20.9107506,6.28580454 20.6514225,6.50255642 C20.3920943,6.7193083 20.2508186,7.07927124 20.2275951,7.58244525 C20.219854,7.79919713 20.2121129,8.10884267 20.2043717,8.51138188 C20.1966306,8.91392109 20.1908247,9.34548956 20.1869542,9.80608731 C20.1830836,10.2666851 20.1850189,10.7021241 20.19276,11.1124044 C20.2005012,11.5226848 20.2121129,11.843942 20.2275951,12.0761762 C20.2585597,12.5561268 20.3979002,12.9083486 20.6456166,13.1328416 C20.8933331,13.3573346 21.2997428,13.4695811 21.8648459,13.4695811 Z" id="Shape"></path><polygon id="Path" points="28.5067429 18.5787326 28.5067429 0 30.7594142 0 30.7594142 18.5787326"></polygon><path d="M36.9020077,18.7645199 C35.5473084,18.7645199 34.5796661,18.5032565 33.9990807,17.9807297 C33.4184953,17.4582028 33.097238,16.616354 33.0353089,15.4551832 C33.0198267,14.944268 33.0062797,14.3578768 32.994668,13.6960095 C32.9830563,13.0341421 32.9772504,12.3490513 32.9772504,11.6407372 C32.9772504,10.932423 32.9830563,10.2434616 32.994668,9.57385315 C33.0062797,8.90424466 33.0198267,8.31398285 33.0353089,7.8030677 C33.1049792,6.59545008 33.4397834,5.7361837 34.0397217,5.22526855 C34.6396599,4.7143534 35.5821435,4.45889583 36.8671725,4.45889583 C38.1676838,4.45889583 39.1043616,4.71628869 39.6772058,5.2310744 C40.2500501,5.74586012 40.5635662,6.57222666 40.6177542,7.71017404 C40.6254953,7.88822022 40.6313012,8.21721861 40.6351717,8.69716921 C40.6390423,9.1771198 40.6390423,9.71706422 40.6351717,10.3170025 C40.6313012,10.9169407 40.6177542,11.4878497 40.5945308,12.0297294 L35.2647568,12.0297294 C35.2647568,12.625797 35.2705627,13.2276706 35.2821744,13.8353499 C35.2937861,14.4430293 35.3073331,15.0642557 35.3228154,15.6990291 C35.3382977,16.1944619 35.4660265,16.5408779 35.7060017,16.7382769 C35.945977,16.935676 36.333034,17.0343755 36.8671725,17.0343755 C37.4013111,17.0343755 37.7786916,16.935676 37.9993141,16.7382769 C38.2199365,16.5408779 38.3418594,16.1905914 38.3650829,15.6874174 C38.3805651,15.4551832 38.3883063,15.1532788 38.3883063,14.7817041 C38.3883063,14.4101295 38.3766946,14.0075903 38.3534711,13.5740865 L40.5945308,13.5740865 C40.610013,13.7908384 40.6216248,14.0966134 40.6293659,14.4914114 C40.637107,14.8862095 40.6332365,15.2074668 40.6177542,15.4551832 C40.5635662,16.6395774 40.2539207,17.4872321 39.6888176,17.9981472 C39.1237144,18.5090624 38.1947778,18.7645199 36.9020077,18.7645199 Z M35.2763686,10.3692551 L38.3883063,10.3692551 C38.3883063,9.97445707 38.3902416,9.57965901 38.3941121,9.18486094 C38.3979827,8.79006287 38.3960474,8.43977635 38.3883063,8.13400137 C38.3805651,7.8282264 38.372824,7.6134098 38.3650829,7.48955159 C38.3341183,7.00185986 38.2025189,6.66124976 37.9702848,6.46772129 C37.7380506,6.27419283 37.3703465,6.1774286 36.8671725,6.1774286 C36.3020694,6.1774286 35.9072714,6.28386925 35.6827783,6.49675056 C35.4582853,6.70963187 35.3382977,7.04056555 35.3228154,7.48955159 C35.3150743,7.96176104 35.3053978,8.43977635 35.2937861,8.92359751 C35.2821744,9.40741867 35.2763686,9.88930455 35.2763686,10.3692551 Z" id="Shape"></path><polygon id="Path" points="43.7357311 18.5787326 43.7357311 0 50.4821334 0 50.4821334 2.00882546 45.9884024 2.00882546 45.9884024 8.19786577 50.2498992 8.19786577 50.2498992 10.2066912 45.9884024 10.2066912 45.9884024 16.5699072 50.4821334 16.5699072 50.4821334 18.5787326"></polygon><polygon id="Path" points="52.3748418 18.5787326 52.3748418 0 54.6275131 0 54.6275131 18.5787326"></polygon><path d="M56.8917962,2.04366059 L56.8917962,0 L59.5857124,0 L59.5857124,2.04366059 L56.8917962,2.04366059 Z M57.1124186,18.5787326 L57.1124186,4.64468315 L59.3650899,4.64468315 L59.3650899,18.5787326 L57.1124186,18.5787326 Z" id="Shape"></path><path d="M65.9953751,18.7645199 C64.5942291,18.7645199 63.6052986,18.5109977 63.0285838,18.0039531 C62.4518689,17.4969085 62.159641,16.6357068 62.1518998,15.4203481 L62.1402881,6.37482763 L60.9675056,6.37482763 L60.9675056,4.64468315 L62.1983467,4.64468315 L62.1983467,0.696702473 L64.4858531,0.696702473 L64.4858531,4.64468315 L66.9475352,4.64468315 L66.9475352,6.37482763 L64.4161829,6.37482763 L64.4394063,15.6874174 C64.4394063,16.2215559 64.5477822,16.5815189 64.7645341,16.7673062 C64.981286,16.9530935 65.3993075,17.0459872 66.0185986,17.0459872 C66.2508327,17.0459872 66.4540376,17.0401813 66.6282132,17.0285696 C66.8023888,17.0169579 67.0017232,17.0072815 67.2262162,16.9995403 L67.2262162,18.6484029 C67.0404288,18.6793674 66.8469004,18.7064614 66.6456308,18.7296848 C66.4443612,18.7529082 66.2276093,18.7645199 65.9953751,18.7645199 Z" id="Path"></path><path d="M72.3585911,18.7645199 C71.0038918,18.7645199 70.0362495,18.5032565 69.4556641,17.9807297 C68.8750787,17.4582028 68.5538214,16.616354 68.4918923,15.4551832 C68.4764101,14.944268 68.4628631,14.3578768 68.4512514,13.6960095 C68.4396396,13.0341421 68.4338338,12.3490513 68.4338338,11.6407372 C68.4338338,10.932423 68.4396396,10.2434616 68.4512514,9.57385315 C68.4628631,8.90424466 68.4764101,8.31398285 68.4918923,7.8030677 C68.5615626,6.59545008 68.8963668,5.7361837 69.4963051,5.22526855 C70.0962433,4.7143534 71.0387269,4.45889583 72.3237559,4.45889583 C73.6242672,4.45889583 74.560945,4.71628869 75.1337892,5.2310744 C75.7066335,5.74586012 76.0201496,6.57222666 76.0743376,7.71017404 C76.0820787,7.88822022 76.0878846,8.21721861 76.0917551,8.69716921 C76.0956257,9.1771198 76.0956257,9.71706422 76.0917551,10.3170025 C76.0878846,10.9169407 76.0743376,11.4878497 76.0511142,12.0297294 L70.7213402,12.0297294 C70.7213402,12.625797 70.7271461,13.2276706 70.7387578,13.8353499 C70.7503695,14.4430293 70.7639165,15.0642557 70.7793988,15.6990291 C70.7948811,16.1944619 70.9226099,16.5408779 71.1625851,16.7382769 C71.4025604,16.935676 71.7896174,17.0343755 72.3237559,17.0343755 C72.8578945,17.0343755 73.235275,16.935676 73.4558975,16.7382769 C73.6765199,16.5408779 73.7984428,16.1905914 73.8216663,15.6874174 C73.8371485,15.4551832 73.8448897,15.1532788 73.8448897,14.7817041 C73.8448897,14.4101295 73.833278,14.0075903 73.8100545,13.5740865 L76.0511142,13.5740865 C76.0665964,13.7908384 76.0782082,14.0966134 76.0859493,14.4914114 C76.0936904,14.8862095 76.0898199,15.2074668 76.0743376,15.4551832 C76.0201496,16.6395774 75.7105041,17.4872321 75.145401,17.9981472 C74.5802978,18.5090624 73.6513612,18.7645199 72.3585911,18.7645199 Z M70.732952,10.3692551 L73.8448897,10.3692551 C73.8448897,9.97445707 73.846825,9.57965901 73.8506955,9.18486094 C73.8545661,8.79006287 73.8526308,8.43977635 73.8448897,8.13400137 C73.8371485,7.8282264 73.8294074,7.6134098 73.8216663,7.48955159 C73.7907017,7.00185986 73.6591023,6.66124976 73.4268682,6.46772129 C73.194634,6.27419283 72.8269299,6.1774286 72.3237559,6.1774286 C71.7586528,6.1774286 71.3638547,6.28386925 71.1393617,6.49675056 C70.9148687,6.70963187 70.7948811,7.04056555 70.7793988,7.48955159 C70.7716576,7.96176104 70.7619812,8.43977635 70.7503695,8.92359751 C70.7387578,9.40741867 70.732952,9.88930455 70.732952,10.3692551 Z" id="Shape"></path></g></g></g></g></g></g></g></svg>