<svg xmlns="http://www.w3.org/2000/svg" xmlns:xlink="http://www.w3.org/1999/xlink" width="123px" height="24px" viewBox="0 0 123 24"><title>fabrik</title><g id="Pages" stroke="none" stroke-width="1" fill="none" fill-rule="evenodd"><g id="Group-41-Copy" transform="translate(-1173, -464)"><g id="Group-20-Copy-2" transform="translate(80, 100)"><g id="Group-20" transform="translate(757.7277, 54.098)"><g id="fabrik" transform="translate(335.3385, 310.7143)"><rect id="Rectangle" x="0" y="0.285714286" width="122.142857" height="22"></rect><g id="logo-(1)" fill="#FFFFFF" fill-rule="nonzero"><path d="M30.3528941,21.8571429 L30.3528941,0 L43.5254424,0 L43.5254424,3.65234375 L34.0092972,3.65234375 L34.0092972,9.09765625 L41.7019894,9.09765625 L41.7019894,12.7594866 L34.0092972,12.7594866 L34.0092972,21.8571429 L30.3528941,21.8571429 Z M42.5377387,21.8571429 L49.4326702,0 L54.7985604,0 L61.7029891,21.8571429 L57.9231231,21.8571429 L51.683495,2.24832589 L52.4907528,2.24832589 L46.3176047,21.8571429 L42.5472358,21.8571429 L42.5377387,21.8571429 Z M46.3840848,17.1138393 L46.3840848,13.6986607 L57.8756373,13.6986607 L57.8756373,17.1138393 L46.3840848,17.1138393 Z M62.5387384,21.8571429 L62.5387384,0 L71.2096371,0 C72.6911926,0 73.906828,0.294084821 74.856543,0.891741071 C75.8062581,1.47991071 76.5090473,2.23883929 76.9744077,3.16852679 C77.4302709,4.07924107 77.6582025,5.02790179 77.6582025,6.01450893 C77.6932832,7.09912961 77.3949941,8.16846734 76.803459,9.07868304 C76.2487558,9.89947895 75.4211199,10.4976726 74.4671599,10.7672991 L74.4671599,10.0178571 C75.7193048,10.2559815 76.8371322,10.9530021 77.6012196,11.9720982 C78.318511,12.9547311 78.6983124,14.1427886 78.6838948,15.358817 C78.7089953,16.5375417 78.4517609,17.7051949 77.9336199,18.7645089 C77.4444513,19.7301954 76.6726448,20.5243067 75.7207838,21.0412946 C74.7425772,21.5820312 73.5364391,21.8571429 72.0928721,21.8571429 L62.5387384,21.8571429 L62.5387384,21.8571429 Z M66.2426272,18.4040179 L71.6370089,18.4040179 C72.2828152,18.4040179 72.8526442,18.280692 73.3464961,18.0245536 C74.3963208,17.5103015 75.0387031,16.4209563 74.980006,15.2544643 C74.980006,14.6662946 74.8470459,14.1350446 74.60012,13.6702009 C74.3436969,13.2053571 73.973308,12.8353795 73.4889533,12.5602679 C72.951934,12.2746841 72.3495851,12.134074 71.7414776,12.1523437 L66.2426272,12.1523437 L66.2426272,18.4135045 L66.2426272,18.4040179 Z M66.2426272,8.72767857 L71.1621514,8.72767857 C71.6844947,8.72767857 72.1593522,8.6328125 72.5772268,8.42410714 C72.9951015,8.234375 73.3275017,7.93080357 73.5744277,7.53236607 C73.8118564,7.14341518 73.9353194,6.65011161 73.9353194,6.06194196 C73.9353194,5.30301339 73.6883935,4.67689732 73.2040388,4.17410714 C72.6592478,3.64760418 71.9189805,3.37246168 71.1621514,3.41517857 L66.2426272,3.41517857 L66.2426272,8.72767857 Z M79.8140558,21.8571429 L79.8140558,0 L88.8553434,0 C89.0642807,0 89.3396981,0 89.6815955,0.0189732143 C90.0139958,0.0379464286 90.3274018,0.06640625 90.6123163,0.113839286 C91.8754374,0.313058036 92.920124,0.739955357 93.7463761,1.38504464 C94.5632683,2.02464799 95.1957479,2.86920012 95.5793262,3.83258929 C95.9782065,4.81919643 96.1776467,5.91964286 96.1776467,7.11495536 C96.2242431,8.75219639 95.752291,10.3623556 94.8290513,11.7159598 C93.926822,12.9871652 92.5497351,13.7840402 90.6787964,14.0876116 L89.1212636,14.2299107 L83.4704589,14.2299107 L83.4704589,21.8571429 L79.8140558,21.8571429 L79.8140558,21.8571429 Z M92.3787864,21.8571429 L88.0670799,12.9587054 L91.789963,12.1428571 L96.5385384,21.8571429 L92.3787864,21.8571429 Z M83.4704589,10.8052455 L88.703389,10.8052455 C88.9123263,10.8052455 89.1402579,10.7957589 89.3871838,10.7672991 C89.6436069,10.7483259 89.8715385,10.7103795 90.089973,10.6534598 C90.6344132,10.5318279 91.1303106,10.2511313 91.5145456,9.84709821 C91.8659402,9.46763393 92.1128661,9.03125 92.2648206,8.54743304 C92.5462925,7.61314213 92.5462925,6.61676858 92.2648206,5.68247768 C92.1201399,5.19576991 91.8668647,4.74816513 91.5240428,4.37332589 C91.1726482,3.99386161 90.6977907,3.72823661 90.0994702,3.57645089 C89.8715385,3.51004464 89.6436069,3.48158482 89.3871838,3.453125 L88.703389,3.42466518 L83.4704589,3.42466518 L83.4704589,10.8052455 L83.4704589,10.8052455 Z M98.2860142,21.8571429 L98.2860142,0 L101.942417,0 L101.942417,21.8571429 L98.2860142,21.8571429 Z M104.60162,21.8571429 L104.60162,0 L108.258023,0 L108.258023,10.141183 L116.995401,0 L121.497051,0 L112.085374,10.7198661 L122.142857,21.8571429 L117.489253,21.8571429 L108.258023,11.6590402 L108.258023,21.8571429 L104.60162,21.8571429 Z M20.8937319,0.0379464286 C23.5162977,0.0379464286 25.6423073,2.16159577 25.6423073,4.78125 C25.6423073,7.40090423 23.5162977,9.52455357 20.8937319,9.52455357 L4.74857543,9.52455357 C2.12600964,9.52455357 0,7.40090423 0,4.78125 C0,2.16159577 2.12600964,0.0379464286 4.74857543,0.0379464286 L20.8937319,0.0379464286 Z M20.8937319,2.88392857 L4.74857543,2.88392857 C3.69954911,2.88392857 2.84914526,3.73338831 2.84914526,4.78125 C2.84914526,5.82911169 3.69954911,6.67857143 4.74857543,6.67857143 L20.8937319,6.67857143 C21.9427582,6.67857143 22.7931621,5.82911169 22.7931621,4.78125 C22.7931621,3.73338831 21.9427582,2.88392857 20.8937319,2.88392857 Z M20.4188743,11.421875 C23.3036967,11.421875 25.6423072,13.7578893 25.6423072,16.6395089 C25.6423072,19.5211285 23.3036967,21.8571429 20.4188743,21.8571429 L5.22343297,21.8571429 C2.33861064,21.8571429 1.10074325e-07,19.5211285 1.10074325e-07,16.6395089 C1.10074325e-07,13.7578893 2.33861064,11.421875 5.22343297,11.421875 L20.4188743,11.421875 Z M20.4188743,14.2678571 L5.22343297,14.2678571 C3.91215007,14.2678571 2.84914526,15.3296818 2.84914526,16.6395089 C2.84914526,17.949336 3.91215007,19.0111607 5.22343297,19.0111607 L20.4188743,19.0111607 C21.2671257,19.0111607 22.0509422,18.5591265 22.4750679,17.8253348 C22.8991935,17.0915432 22.8991935,16.1874746 22.4750679,15.453683 C22.0509422,14.7198914 21.2671257,14.2678571 20.4188743,14.2678571 L20.4188743,14.2678571 Z" id="Shape"></path></g></g></g></g></g></g></svg>