<svg xmlns:xlink="http://www.w3.org/1999/xlink"  xmlns="http://www.w3.org/2000/svg" width="66" height="83" viewBox="0 0 66 83"><g fill="none" fill-rule="evenodd"><path fill="#FFF" d="M1.18 15.34h63.64v66H1.18z"></path><path d="M65.2 82.34c-13.81 0-64.32-.17-64.83-.17a.34.34 0 0 1-.24-.1.3.3 0 0 1-.1-.2c0-.46 1.08-45.8-.03-66.64 0-.08.03-.17.1-.23.06-.05.15-.09.24-.09 8.07 0 18.77.05 30.09.1 12.24.05 24.9.1 35.23.1.1 0 .18.04.24.1.07.06.1.14.1.22-.86 13.75-.63 31.74-.44 46.17.12 9.35.21 16.74 0 20.43 0 .08-.04.16-.1.22a.36.36 0 0 1-.25.09ZM.73 81.57c4.46 0 50.53.16 64.17.16.2-3.75.11-11 0-20.1-.19-14.36-.42-32.19.41-45.91-10.26 0-22.76-.05-34.87-.11-11.16-.04-21.71-.1-29.74-.1C1.73 35.6.8 77.54.72 81.56v.02Z" fill="#000" fill-rule="nonzero"></path><path fill="#FFF" d="M6 20.34h54v56H6z"></path><path d="M23.53 52.05c8.37-1.11 6.37-3.55 8.7-11.59 1 2.34 2 10.7 9.63 11.23a6.82 6.82 0 0 0-6.39 3.94 44 44 0 0 0-2.68 6.2c-.94-1.41.51-7.53-9.26-9.78Z" fill="#FFF" fill-rule="nonzero"></path><path d="M32.75 62.36a.5.5 0 0 1-.42-.22 4.71 4.71 0 0 1-.47-1.66c-.4-2.33-1.1-6.24-8.48-7.91a.49.49 0 0 1-.38-.5c0-.24.18-.44.42-.47 6.07-.81 6.33-2.11 7.17-6.44.25-1.3.57-2.91 1.11-4.8a.49.49 0 0 1 .92-.07c.24.58.44 1.17.61 1.77 1 3.28 2.7 8.77 8.62 9.18a.47.47 0 0 1 .46.49c0 .26-.2.48-.47.49a6.33 6.33 0 0 0-6 3.7 44 44 0 0 0-2.59 6.13.52.52 0 0 1-.4.32l-.1-.01Zm-7-10.16c6 2.06 6.72 5.89 7.1 8.08.6-1.67 1.33-3.29 2.18-4.85a7.4 7.4 0 0 1 4.18-3.75c-4.54-1.65-6-6.52-6.89-9.33l-.05-.17c-.3 1.18-.5 2.22-.68 3.17-.74 3.82-1.13 5.82-5.84 6.85Z" fill="#000" fill-rule="nonzero"></path><path d="M5.52 76.41a.12.12 0 0 1-.08-.03.09.09 0 0 1 0-.07V20.19a.08.08 0 0 1 0-.07h.09l54.69.17c.06 0 .11.04.12.1l.23 55.8c0 .06-.05.1-.12.1l-54.9.15-.03-.03Zm.08-56.12.04 55.92 54.67-.14-.24-55.61-54.47-.17Z" stroke="#000" stroke-width=".66" fill="#5AB691" fill-rule="nonzero"></path><path d="M5.35 34.96c13.48-1.22 23.59-1.82 30.33-1.82 6.73 0 15.06.6 24.97 1.82V20.38H5.35v14.58Z" stroke="#000" stroke-width=".66" fill="#3CA200" fill-rule="nonzero"></path><path d="M57.54 24.02c-.37-.01-.66-.35-.66-.76l.63-22.2c0-.2.08-.39.21-.52.13-.14.3-.21.49-.2.37.02.66.36.65.76l-.65 22.16c0 .2-.06.4-.19.54a.64.64 0 0 1-.48.22ZM50.6 24.02a.64.64 0 0 1-.47-.22.78.78 0 0 1-.18-.53l.2-11.1c0-.2.08-.38.2-.52a.64.64 0 0 1 .96.02c.12.14.19.33.18.53l-.2 11.1c-.02.4-.32.73-.69.72ZM10.24 24.02c.38-.01.67-.35.66-.76l-.63-22.2c0-.2-.08-.39-.2-.52a.64.64 0 0 0-.5-.2c-.36.02-.65.36-.65.76l.65 22.16c0 .2.06.4.2.54.12.14.3.22.47.22ZM17.18 24.02c.18 0 .35-.08.47-.22a.78.78 0 0 0 .19-.53l-.2-11.1c-.01-.2-.08-.38-.21-.52a.64.64 0 0 0-.95.02.76.76 0 0 0-.19.53l.2 11.1c.02.4.33.73.7.72Z" fill="#000" fill-rule="nonzero"></path></g></svg>