<svg xmlns:xlink="http://www.w3.org/1999/xlink"  xmlns="http://www.w3.org/2000/svg" width="59" height="84" viewBox="0 0 59 84"><g fill="none" fill-rule="evenodd"><g transform="translate(.3 .28)"><path d="M0 0c1 20.98 0 66.27 0 66.27s45.46.17 57.96.17c.52-9.33-.86-43.76.4-66.24C40.67.2 15.05 0 0 0Z" fill="#3CA200"></path><path d="M4.63 61.71a.1.1 0 0 1-.07-.03.1.1 0 0 1 0-.07V4.33a.1.1 0 0 1 0-.07h.08l48.89.17c.06 0 .1.04.1.1l.21 56.96a.1.1 0 0 1-.1.1l-49.08.15-.03-.03Zm.08-57.28.03 57.08 48.87-.15-.2-56.76-48.7-.17Z" fill="#000" fill-rule="nonzero"></path><rect stroke="#000" stroke-width=".3" fill="#FFF" x="4.15" y="4.15" width="49.7" height="57.7" rx=".4"></rect><path d="M17.61 20.44a.3.3 0 1 1 0-.61l2.03-.12c.63-.05 1.3-.1 2.08-.13a.3.3 0 0 1 .32.29.3.3 0 0 1-.29.31l-2.07.13-2.04.12-.03.01ZM24.07 18.4a.3.3 0 0 1-.3-.27l-.26-3.86a.3.3 0 0 1 .27-.32.3.3 0 0 1 .33.28l.26 3.86a.3.3 0 0 1-.28.31h-.02ZM29.14 20.2h-3.19a.3.3 0 1 1 0-.62h3.2c.16.01.3.15.3.31a.3.3 0 0 1-.31.3ZM24.07 26.15a.3.3 0 0 1-.27-.33c.1-1.2.1-2.42 0-3.63a.3.3 0 0 1 .61-.05c.11 1.24.11 2.49 0 3.73a.3.3 0 0 1-.34.28Z" fill="#000" fill-rule="nonzero"></path><g fill="#000" fill-rule="nonzero"><path d="M38.1 32.36a.3.3 0 1 1 0-.61c.49 0 .81-.06 1.16-.09.34-.03.69-.07 1.22-.1a.3.3 0 0 1 .32.3.3.3 0 0 1-.28.3c-.5 0-.85.07-1.19.1l-1.19.09h-.05ZM42.43 30.43a.3.3 0 0 1-.3-.28c0-.46-.06-.86-.1-1.27l-.08-1.28a.3.3 0 0 1 .29-.32.3.3 0 0 1 .32.29c0 .46.05.86.08 1.27l.09 1.27a.3.3 0 0 1-.29.32h-.01ZM44.45 32.18h-.39a.3.3 0 0 1-.3-.3c0-.16.14-.3.3-.3h1.61a.3.3 0 1 1 0 .61h-1.23.01ZM42.32 36.46a.3.3 0 0 1-.27-.32c.06-.75.06-1.51 0-2.26a.3.3 0 0 1 .61-.05c.07.78.07 1.57 0 2.36a.3.3 0 0 1-.34.27Z"></path></g><path d="M18.93 41.09c3.02-.46 2.3-1.47 3.14-4.8.38.97.73 4.43 3.48 4.64a2.5 2.5 0 0 0-2.3 1.63c-.39.83-.71 1.69-.98 2.57-.34-.6.19-3.13-3.34-4.04Z" fill="#FFF" fill-rule="nonzero"></path></g><path d="M58.3 67.04c-12.36 0-57.51-.17-57.97-.17a.3.3 0 0 1-.3-.3C.03 66.1 1 21.03 0 .3A.3.3 0 0 1 .3 0c7.21 0 16.78.04 26.9.1 10.95.04 22.27.1 31.5.1a.3.3 0 0 1 .21.1c.06.05.1.13.09.21-.77 13.67-.56 31.56-.4 45.9.12 9.3.2 16.65 0 20.32a.3.3 0 0 1-.3.3ZM.63 66.27c3.99 0 45.17.16 57.36.17.19-3.74.1-10.93 0-20-.16-14.27-.37-32 .38-45.64C49.2.8 38.02.75 27.2.7 17.22.64 7.8.6.62.6c.93 19.96.1 61.66.02 65.65v.02Z" fill="#000" fill-rule="nonzero"></path><g fill-rule="nonzero"><path d="M18.76 50.46c1.6 4.35 1.5 8.57-1.39 13.4-2.4 3.95-4.73 7.96-6.93 12.03-1.07 1.98-1.96 4.56-.57 6.31.2.29.47.5.8.62.36.06.73.01 1.06-.15 1.66-.67 2.63-2.36 3.48-3.94l6.4-11.98c1.28-2.37 2.68-4.92 5.07-6.27 2.15-1.22 4.87-1.31 6.88-2.75a55.41 55.41 0 0 0-14.68-8.4c-.18.22-.35.48-.12 1.13Z" fill="#3CA200"></path><path fill="#FFF" d="m8.5 36.7-.8 6.92 34.55 20.01 5.66-4.19z"></path><path d="M42.36 60.89h-.07L9.34 41.96a.13.13 0 0 1-.06-.08l.01-.1a.14.14 0 0 1 .19-.04l32.95 18.93c.06.03.08.11.05.18a.14.14 0 0 1-.12.04ZM10.59 83.23c-.42-.13-.78-.39-1.03-.74-1.23-1.58-1.04-3.85.53-6.76 2.2-4.08 4.61-8.13 6.94-12.04 2.62-4.4 3.04-8.44 1.36-13.1-.28-.51-.23-.65.23-1.01 4.44 2.63 9.04 5.32 15.14 9.02-1.18.76-2.39.8-3.75 1.11-1.07.27-2.1.66-3.08 1.16-2.4 1.33-3.78 3.98-4.92 6.11l-6.4 11.99c-.94 1.76-1.94 3.4-3.66 4.11-.3.13-.63.2-.96.2a1.7 1.7 0 0 1-.4-.05Zm7.12-19.15c-2.33 3.94-4.72 7.95-6.92 12.01-1.42 2.63-1.6 4.61-.6 5.92.14.22.35.39.6.48.28.04.56 0 .8-.12 1.5-.62 2.4-2.13 3.28-3.76l6.4-12c1.19-2.2 2.66-4.97 5.22-6.41 1.03-.53 2.12-.94 3.25-1.23 1.11-.27 2.18-.68 3.2-1.21-4.96-2.63-8.8-4.93-13.9-7.9-.01.17.02.33.1.47 1.73 4.83 1.28 9.2-1.43 13.75Z" fill="#000"></path><path d="M42.24 64a.36.36 0 0 1-.2-.05L7.5 43.94a.4.4 0 0 1-.2-.38l.8-6.92a.4.4 0 0 1 .22-.31.38.38 0 0 1 .37 0L48.1 59.08a.39.39 0 0 1 .03.65l-5.66 4.18a.36.36 0 0 1-.24.1ZM8.12 43.4l34.1 19.72 4.98-3.69L8.84 37.28l-.72 6.12Z" fill="#000"></path></g><path d="M24.57 41.7c-.1 0-.2-.05-.26-.15-.1-.22-.16-.46-.18-.7-.15-1.01-.39-2.53-2.97-3.2a.3.3 0 0 1-.23-.3.3.3 0 0 1 .26-.28c2.1-.32 2.18-.8 2.46-2.58.08-.53.2-1.22.4-1.99a.3.3 0 0 1 .27-.22c.13-.01.25.07.3.18.07.2.14.45.22.75.35 1.32.95 3.55 3 3.7a.3.3 0 0 1 .28.31.3.3 0 0 1-.28.3c-.93 0-1.75.59-2.06 1.46-.37.81-.69 1.65-.95 2.51a.3.3 0 0 1-.26.21Zm-2.22-4.28a3.68 3.68 0 0 1 2.3 2.82c.16-.52.37-1.04.6-1.54.27-.65.75-1.18 1.37-1.52-1.35-.68-1.9-2.25-2.23-3.39l-.14.8c-.24 1.52-.37 2.38-1.9 2.84Z" fill="#000" fill-rule="nonzero"></path></g></svg>