<svg xmlns:xlink="http://www.w3.org/1999/xlink"  xmlns="http://www.w3.org/2000/svg" width="67" height="82" viewBox="0 0 67 82"><g fill-rule="nonzero" fill="none"><path d="M63.3 30.48c-1.8 7.4-4 14.7-6.63 21.87a54.77 54.77 0 0 1-6.58 12.56 7.9 7.9 0 0 1-4.46 3.4c0-1.88-1.84-2.98-1.99-4.88-.16-2.32 1.51-4.21.3-6.36a33.41 33.41 0 0 1-4.2-12.93c-.37-3.64-.07-7.41 1.9-10.56a12.2 12.2 0 0 1 10.44-5.48c3.34.07 8.77.04 11.21 2.38Z" fill="#3CA200"></path><path d="M45.63 68.78a.5.5 0 0 1-.28-.09.44.44 0 0 1-.19-.39 4.07 4.07 0 0 0-.95-2.26 5.43 5.43 0 0 1-1.08-2.57c-.03-.94.1-1.87.39-2.77.31-1.22.6-2.27 0-3.4a33.7 33.7 0 0 1-4.26-13.12c-.46-4.45.2-7.99 2-10.84a12.65 12.65 0 0 1 10.78-5.67h.54c3.41.07 8.58.16 11.03 2.5a.5.5 0 0 1 .13.45 200.8 200.8 0 0 1-6.68 21.91 54.58 54.58 0 0 1-6.68 12.68 8.33 8.33 0 0 1-4.68 3.57h-.07Zm6.17-40.22c-3.93.02-7.6 2-9.73 5.27-1.69 2.67-2.3 6.03-1.91 10.26a32.69 32.69 0 0 0 4.13 12.75c.82 1.46.48 2.83.14 4.1-.26.8-.38 1.63-.37 2.46.14.78.46 1.52.96 2.14.46.64.78 1.36.95 2.12a7.27 7.27 0 0 0 3.67-3.01 54.16 54.16 0 0 0 6.52-12.46 199.41 199.41 0 0 0 6.54-21.55c-2.27-1.9-7.02-2-10.2-2.06h-.53l-.17-.02Z" fill="#000"></path><path d="M9.22 36.7c-.57 6.16-2.71 12.1-3.64 18.21-.94 6.12-.52 12.79 3.55 18.15 3.56 4.72 9.88 7.96 16.4 8.42 6.52.46 13.07-1.89 17.03-6.04 3.74-3.94 5.73-13.4 6.87-18.12 2.8.85 6.12.43 8.15-1.27a4.81 4.81 0 0 0 .72-6.77c-1.73-2.07-4.22-2.7-7.49-.46.56-3.19.76-6.43.61-9.66-.12-4.91.83-12.04-2.24-14.58-1.75-1.42-5.63-3.02-7.8-3.92-3.75-1.56-9.54.1-13.62-.5-4.07-.6-8.53.74-12.12 2.28-4.28 1.84-5.99 9.62-6.42 14.25Z" fill="#FFF"></path><path d="M27.2 82c-.57 0-1.13-.02-1.7-.06-6.68-.47-13.1-3.77-16.76-8.6-3.66-4.83-4.77-10.93-3.62-18.5.4-2.69 1.05-5.37 1.68-7.97a72.5 72.5 0 0 0 1.95-10.22c.2-2.04 1.42-12.36 6.68-14.64 4.77-2.04 8.9-2.83 12.41-2.3a27 27 0 0 0 5.52 0c2.86-.2 5.88-.4 8.2.56l.24.1c2.23.95 5.94 2.48 7.64 3.9 2.6 2.15 2.52 7.19 2.43 11.65v3.37c.12 2.89-.02 5.77-.43 8.62 2.79-1.53 5.32-1.15 7.2 1.12a5.23 5.23 0 0 1-.78 7.4 9.4 9.4 0 0 1-8.1 1.5l-.28 1.14c-1.26 5.21-3.16 13.1-6.6 16.72-3.7 3.89-9.6 6.21-15.69 6.21ZM9.68 36.73c-.4 3.5-1.07 6.98-1.98 10.39-.62 2.58-1.27 5.24-1.67 7.89-1.11 7.32.05 13.3 3.46 17.8 3.4 4.5 9.66 7.78 16.07 8.24 6.4.45 12.78-1.82 16.65-5.9 3.27-3.45 5.2-11.5 6.37-16.3.13-.59.26-1.12.39-1.61.03-.13.1-.23.22-.3a.51.51 0 0 1 .37 0c2.61.87 5.48.43 7.7-1.19a4.32 4.32 0 0 0 .67-6.1c-1.8-2.15-4.1-2.28-6.86-.39-.16.11-.37.11-.53 0a.47.47 0 0 1-.2-.48c.54-3.12.75-6.28.6-9.44V35.9c.08-4.25.17-9.06-2.1-10.92-1.62-1.33-5.25-2.83-7.43-3.78l-.24-.1c-2.1-.88-4.99-.68-7.79-.5-1.9.2-3.82.2-5.72 0-3.3-.47-7.3.28-11.86 2.25-3.7 1.65-5.62 8.48-6.12 13.87Z" fill="#000"></path><path d="M29.5 29.33c-.85 2.68-5.48 6.15-8.19 6.18-2.7.03-3.61-1.27-4.46-3.93-2.58 1.9-4.57 3.87-7.08 4.57A7.64 7.64 0 0 1 .64 30.5c-.89-4 1.91-8.5 5.81-9.35-2.6.37-4.9-2.4-4.71-5.1.34-2.72 2.18-5.01 4.77-5.96 2.45-.95 5.17-.88 7.84-1.03-.76-2.7.79-5.75 3.13-7.23A10.73 10.73 0 0 1 25.43.75a9.58 9.58 0 0 1 4.77 2.33 6.22 6.22 0 0 1 1.84 5.18c2.62-2.75 6.61-4.39 10.12-3.22C45.68 6.21 48 10.8 48 13.81c1.91-1.98 4.39-3.52 7.07-3.14 5.31.76 6.11 5.36 3.18 10.94 1.7-.58 3.57-.4 5.12.5a6.12 6.12 0 0 1 2.97 4.16c.73 3.13-.83 7.9-3.19 10.08-2.36 2.2-10.1 3.58-15.05-.63a14.13 14.13 0 0 1-4.5-8.05c-1.8 2.53-3.12 4.26-7.14 5.2-2.94.67-6.23-.75-6.96-3.54Z" fill="#3CA200"></path><path d="M56.1 38.91c-3.02.07-5.96-.93-8.3-2.83a14.08 14.08 0 0 1-4.4-7.3c-1.54 2.4-4.01 4.04-6.83 4.54a6.48 6.48 0 0 1-7.1-2.83c-1.54 2.63-5.55 5.43-8.16 5.46h-.1c-2.67 0-3.75-1.29-4.6-3.65l-1.3 1.01a16.26 16.26 0 0 1-5.41 3.25 7.7 7.7 0 0 1-5.93-.89 8.04 8.04 0 0 1-3.82-5.09 8.7 8.7 0 0 1 4.35-9.24 4.54 4.54 0 0 1-1.45-.94A5.64 5.64 0 0 1 1.27 16c.21-3.07 2.7-5.4 5.07-6.35 2.1-.7 4.3-1.04 6.5-.99h.96a7.45 7.45 0 0 1 3.46-7.19 11.15 11.15 0 0 1 8.3-1.12c1.86.33 3.6 1.17 4.99 2.43a6.7 6.7 0 0 1 2 4.36c2.93-2.57 6.68-3.56 9.78-2.53 3.26 1.08 5.65 4.95 6.08 8.19 2.24-2.03 4.5-2.9 6.73-2.58a5.82 5.82 0 0 1 4.65 2.89c1.01 1.94.78 4.72-.65 7.78 1.43-.24 2.9 0 4.2.67a6.86 6.86 0 0 1 3.47 4.61c.76 3.25-.8 8.17-3.33 10.53-1.3 1.21-4.19 2.21-7.38 2.21Zm-12.5-11.7h.1c.18.03.32.17.36.35.54 3 2.07 5.74 4.36 7.8 4.64 3.95 12.13 2.82 14.41.65 2.29-2.17 3.75-6.72 3.06-9.65a5.89 5.89 0 0 0-3-4c-1.37-.73-2.99-.85-4.45-.33a.47.47 0 0 1-.52-.12.45.45 0 0 1-.07-.53c1.68-3.2 2.07-6 1.1-7.87a4.88 4.88 0 0 0-3.94-2.4c-2.16-.3-4.4.71-6.68 3.02a.47.47 0 0 1-.51.1.46.46 0 0 1-.3-.43c0-2.71-2.1-7.2-5.5-8.33-3.1-1.02-6.87.2-9.65 3.1a.48.48 0 0 1-.54.1.47.47 0 0 1-.27-.47 5.8 5.8 0 0 0-1.69-4.73 9.11 9.11 0 0 0-4.51-2.23 10.24 10.24 0 0 0-7.64 1 6.37 6.37 0 0 0-2.93 6.71c.04.14.02.28-.06.4a.46.46 0 0 1-.37.19l-1.48.06c-2.11-.04-4.21.28-6.2.95-2.1.84-4.3 2.83-4.48 5.56a4.7 4.7 0 0 0 1.5 3.69c.7.7 1.69 1.05 2.68.94a.48.48 0 1 1 .17.94c-3.64.8-6.3 5.08-5.46 8.8a7.06 7.06 0 0 0 3.35 4.5 6.68 6.68 0 0 0 5.2.79c1.8-.5 3.31-1.7 5.08-3.08.58-.47 1.19-.95 1.84-1.42a.47.47 0 0 1 .72.24c.82 2.52 1.59 3.64 4.01 3.6 2.43-.03 6.96-3.37 7.75-5.85.06-.2.25-.33.46-.33.21 0 .4.15.45.35.68 2.64 3.82 3.78 6.4 3.2 3.94-.94 5.17-2.64 6.86-5a.5.5 0 0 1 .4-.27ZM15.27 45.92c-.04-.6.29-1.16.83-1.42a1.5 1.5 0 0 1 1.64.23c.45.4.6 1.03.4 1.6-.22.55-.75.93-1.35.95-.39.02-.76-.11-1.05-.37a1.42 1.42 0 0 1-.47-.99ZM36.81 49.07c-.05-.6.28-1.17.82-1.43a1.5 1.5 0 0 1 1.65.23c.45.4.6 1.03.4 1.6-.22.56-.76.93-1.36.95-.8.03-1.47-.57-1.51-1.35ZM27.07 72.35c-.87 0-1.73-.15-2.54-.44a.46.46 0 0 1-.29-.6c.1-.23.36-.35.6-.27 2.43.84 5.12.26 6.98-1.5a.46.46 0 0 1 .66 0c.18.18.18.47 0 .65a7.83 7.83 0 0 1-5.41 2.16ZM24.2 64.4a8.76 8.76 0 0 1-3.66-.88 3.82 3.82 0 0 1-1.59-1.16 3.14 3.14 0 0 1-.33-2.83c.26-.7.6-1.35 1.01-1.96l.18-.29a26.26 26.26 0 0 0 3.72-11.38.48.48 0 0 1 .82-.26c.09.09.12.21.11.34a27.08 27.08 0 0 1-3.82 11.77l-.18.3c-.4.57-.71 1.18-.95 1.82-.25.66-.18 1.4.19 2 .33.37.75.67 1.22.85a7.6 7.6 0 0 0 3.63.78 4.4 4.4 0 0 0 3.14-1.5c.16-.2.46-.23.66-.07.2.17.24.46.07.66a5.37 5.37 0 0 1-3.82 1.84l-.4-.04ZM50.02 52.51h-.12a.47.47 0 0 1-.33-.57c.35-1.33.52-2.04.81-3.34.03-.12.1-.23.2-.3.11-.06.24-.08.36-.06.25.06.41.31.36.56-.3 1.31-.47 2.03-.82 3.37a.48.48 0 0 1-.46.34Z" fill="#000"></path><path d="M38.72 61.6c-1.83 0-3.62-.44-5.24-1.28a8.95 8.95 0 0 1-4.65-5.42 17.42 17.42 0 0 1-.47-3.26A17.6 17.6 0 0 0 28 48.9c-.42-1.8-1.76-3.6-3.51-3.6-1.75 0-3.03 1.82-3.66 3.48-.17.46-.32.95-.47 1.41-.36 1.5-1.04 2.9-2.02 4.1a8.18 8.18 0 0 1-5.62 2.19 9.36 9.36 0 0 1-5.79-1.37c-3.07-2.12-3.71-6.16-4.07-9.77-.13-1.4-.32-3.3.55-4.82.77-1.38 2.54-1.9 5.38-1.64 13.01 1.27 25.94 3.23 38.74 5.87 1.42.3 2.86.74 3.42 1.98.3.72.36 1.5.21 2.25-.7 5.67-4.36 10.5-9.11 12.1-1.07.37-2.2.55-3.33.54ZM24.49 44.35c2.34 0 3.93 2.22 4.43 4.31.2.96.33 1.92.38 2.9.05 1.04.2 2.07.44 3.09a8.02 8.02 0 0 0 4.17 4.84c2.4 1.27 5.2 1.52 7.8.7 4.41-1.49 7.83-6.05 8.48-11.33a3.2 3.2 0 0 0-.12-1.74c-.42-.88-1.59-1.23-2.77-1.47a365.07 365.07 0 0 0-38.63-5.85c-2.4-.24-3.92.15-4.48 1.16-.67 1.18-.59 2.64-.43 4.27.34 3.42.96 7.22 3.67 9.1a8.4 8.4 0 0 0 5.2 1.22 7.3 7.3 0 0 0 4.99-1.9 9.4 9.4 0 0 0 1.81-3.77c.15-.47.3-.95.49-1.45.35-.94 1.73-4.05 4.52-4.09l.05.01ZM51.48 55.57a.17.17 0 0 1-.16-.14c0-.08.05-.16.14-.17a5.05 5.05 0 0 0 3.15-1.52 3.07 3.07 0 0 0 .62-3.23.15.15 0 0 1 .08-.2c.07-.04.17 0 .2.07a3.4 3.4 0 0 1-.67 3.57 5.41 5.41 0 0 1-3.34 1.62h-.02ZM7.31 33.77a4.88 4.88 0 0 1-2.53-1.81A4.66 4.66 0 0 1 3.62 30c-.1-.75-.02-1.51.23-2.22a.15.15 0 0 1 .3.08 4.6 4.6 0 0 0-.23 2.07c.21.69.59 1.32 1.1 1.83.58.81 1.4 1.41 2.36 1.71.08.02.13.1.12.18a.16.16 0 0 1-.19.12ZM8.6 32.54a2.5 2.5 0 0 1-1.87-2.24c0-.09.07-.15.15-.15.09 0 .16.06.16.15.07.92.72 1.7 1.63 1.95.08.03.13.1.11.2a.16.16 0 0 1-.19.09Z" fill="#000"></path></g></svg>