<svg xmlns="http://www.w3.org/2000/svg" width="42" height="38" viewBox="0 0 42 38"><g fill-rule="nonzero" fill="none"><path d="M1 9.54a4.5 4.5 0 0 1 4.5-4.5h31a4.5 4.5 0 0 1 4.5 4.5V32.5c0 2.48-1.68 3.65-4.17 3.65L5.5 37A4.5 4.5 0 0 1 1 32.5V9.55Z" fill="#FFF"></path><path d="M36.5 4.84a4.7 4.7 0 0 1 4.71 4.7V32.5c0 2.5-1.65 3.86-4.37 3.86L5.5 37.2a4.7 4.7 0 0 1-4.71-4.7V9.54a4.7 4.7 0 0 1 4.71-4.7h31Zm0 .42h-31a4.29 4.29 0 0 0-4.29 4.28V32.5a4.29 4.29 0 0 0 4.28 4.28l31.34-.84c2.51 0 3.96-1.2 3.96-3.44V9.54a4.29 4.29 0 0 0-4.29-4.28ZM1.79 11.17l.35.3 16.04 13.97a4.3 4.3 0 0 0 5.63.01 196.9 196.9 0 0 1 7.05-6.6c2-1.75 5-4.2 9-7.38l.35-.27V32.51a3.7 3.7 0 0 1-.55 1.94l-.66.8c-.4.35-.95.42-1.88.35-.1 0-.18 0-.33-.02-.43-.04-.6-.05-.79-.05l-30.5.68c-.94 0-1.82-.35-2.52-.99l-.65-.8a3.7 3.7 0 0 1-.54-1.91V11.17Zm38 .9-.12.1c-3.77 2.99-6.61 5.32-8.53 6.99a197.11 197.11 0 0 0-7.05 6.6 4.72 4.72 0 0 1-6.19 0L2.21 12.1v20.4c0 .54.13 1.05.35 1.5l.1.18.62.75c.6.55 1.39.86 2.21.86L36 35.11a8.86 8.86 0 0 1 1.15.08c.82.06 1.29 0 1.54-.23l.62-.75c.31-.51.48-1.1.48-1.7V12.07ZM36.5 5.83a3.7 3.7 0 0 1 3.71 3.7v.78l-.09.17a153.64 153.64 0 0 0-9.98 7.68 86.25 86.25 0 0 0-6.7 6.85 3.72 3.72 0 0 1-4.88 0L1.86 10.47l-.07-.16v-.77a3.7 3.7 0 0 1 3.71-3.7h31Zm0 .42h-31a3.29 3.29 0 0 0-3.29 3.29v.68l16.63 14.47a3.3 3.3 0 0 0 4.15.15l.15-.13a86.08 86.08 0 0 1 6.72-6.87c2.01-1.75 5.2-4.2 9.55-7.36l.38-.28v-.66a3.29 3.29 0 0 0-3.1-3.28h-.19Z" fill="#000"></path><path d="M5.5 6.04A3.5 3.5 0 0 0 2 9.54v.77l16.7 14.54a3.5 3.5 0 0 0 4.6 0A85.9 85.9 0 0 1 30 18c2.08-1.8 5.4-4.37 10-7.69v-.77a3.5 3.5 0 0 0-3.5-3.5h-31Z" fill="#3CA200"></path><path d="M17.24 9.86h-.04a.4.4 0 0 1-.27-.15.41.41 0 0 1-.1-.3C17.2 6 18.54 2.77 20.7.14a.4.4 0 1 1 .63.52 16.73 16.73 0 0 0-3.68 8.82.4.4 0 0 1-.4.37ZM21.84 12.44h-.08a.42.42 0 0 1-.32-.49 12.9 12.9 0 0 1 2.3-5.33.4.4 0 0 1 .57-.09c.18.14.22.4.08.58a12.09 12.09 0 0 0-2.15 5 .43.43 0 0 1-.4.33Z" fill="#000"></path><path d="M40 11.64c-4 3.17-7 5.62-9 7.36a196.74 196.74 0 0 0-7.04 6.6 4.5 4.5 0 0 1-5.92 0L2 11.64V32.5c0 .66.19 1.28.5 1.8l.64.78A3.5 3.5 0 0 0 5.5 36l30.5-.68c.9 0 2.23.34 2.86-.23l.63-.77c.32-.53.5-1.15.5-1.81L40 11.64Z" fill="#FFF"></path></g></svg>