<svg xmlns="http://www.w3.org/2000/svg" xmlns:xlink="http://www.w3.org/1999/xlink" width="34px" height="32px" viewBox="0 0 34 32"><title>cabinets</title><g id="Pages" stroke="none" stroke-width="1" fill="none" fill-rule="evenodd"><g id="Services" transform="translate(-750, -2038)"><g id="Group-22" transform="translate(80, 1752)"><g id="Group-48" transform="translate(0, -0)"><g id="Group-13" transform="translate(0, 260.6557)"><g id="Group-2-Copy-6" transform="translate(647, 0)"><g id="Group-7" transform="translate(10, 9.3443)"><g id="cabinets" transform="translate(13, 16)"><rect id="Rectangle" fill="#3CA200" x="0" y="20" width="34" height="10"></rect><polygon id="Fill-1" fill="#000000" points="9.41196744 6.50912951 10.0231469 6.50912951 10.0231469 4.02772142 9.41196744 4.02772142"></polygon><polygon id="Fill-2" fill="#000000" points="14.6499219 26.3786221 15.2611014 26.3786221 15.2611014 23.897214 14.6499219 23.897214"></polygon><polygon id="Fill-3" fill="#000000" points="18.7327962 26.3786221 19.3439756 26.3786221 19.3439756 23.897214 18.7327962 23.897214"></polygon><polygon id="Fill-4" fill="#000000" points="20.5477547 6.50912951 21.1589341 6.50912951 21.1589341 4.02772142 20.5477547 4.02772142"></polygon><path d="M22.2590571,0 L0,0 L0,10.5427965 L33.9937024,10.5427965 L33.9937024,0 L22.2590571,0 Z M11.1232699,9.93181262 L0.610983083,9.93181262 L0.610983083,0.61137502 L11.1232699,0.61137502 L11.1232699,9.93181262 Z M22.2527986,9.93181262 L11.7405122,9.93181262 L11.7405122,0.61137502 L22.2527986,0.61137502 L22.2527986,9.93181262 Z M22.8700801,0.61137502 L33.3823665,0.61137502 L33.3823665,9.93181262 L22.8700801,9.93181262 L22.8700801,0.61137502 Z" id="Fill-5" fill="#000000"></path><polygon id="Fill-6" fill="#000000" points="31.6772834 6.50912951 32.2884629 6.50912951 32.2884629 4.02772142 31.6772834 4.02772142"></polygon><path d="M26.8308749,19.8632341 L26.8308749,15.6704453 C26.8308749,14.6558679 26.0057729,13.830805 24.9912346,13.830805 C23.9766963,13.830805 23.1515942,14.655907 23.1515942,15.6704453 L23.7627737,15.6704453 C23.7627737,14.9920264 24.3128156,14.4419844 24.9912346,14.4419844 C25.6696535,14.4419844 26.2196955,14.9920264 26.2196955,15.6704453 L26.2196955,19.8632341 L0.000195186272,19.8632341 L0.000195186272,30.4060306 L1.59536375,30.4060306 L1.59536375,31.7811734 L2.20654319,31.7811734 L2.20654319,30.4121326 L31.9953314,30.4121326 L31.9953314,31.7811734 L32.6065109,31.7811734 L32.6065109,30.4060306 L34,30.4060306 L34,19.8632341 L26.8308749,19.8632341 Z M16.6913591,29.800914 L0.611373455,29.800914 L0.611373455,20.4804764 L16.6913591,20.4804764 L16.6913591,29.800914 Z M33.3827185,29.800914 L17.3027341,29.800914 L17.3027341,20.474218 L33.3827185,20.474218 L33.3827185,29.800914 Z" id="Fill-7" fill="#000000"></path></g></g></g></g></g></g></g></g></svg>