<svg xmlns="http://www.w3.org/2000/svg" xmlns:xlink="http://www.w3.org/1999/xlink" width="38px" height="35px" viewBox="0 0 38 35"><title>towel</title><g id="Pages" stroke="none" stroke-width="1" fill="none" fill-rule="evenodd"><g id="Services" transform="translate(-1076, -2205)" fill-rule="nonzero"><g id="Group-22" transform="translate(80, 1752)"><g id="Group-48" transform="translate(0, -0)"><g id="Group-13-Copy-2" transform="translate(0, 430.6557)"><g id="Group-2-Copy-7" transform="translate(974, 0)"><g id="Group-7" transform="translate(10, 9.3443)"><g id="towel" transform="translate(12, 13)"><path d="M36.4040714,12.5724115 L19.639902,7.59451878 C19.5866953,7.57876084 19.5322702,7.57067984 19.4786573,7.5589624 L19.4786573,6.01185597 C20.9290474,5.78316382 22.041514,4.53060965 22.041514,3.0247163 C22.041514,1.356799 20.6776356,0 19.0010156,0 C17.3248017,0 15.9605172,1.356799 15.9605172,3.0247163 C15.9605172,3.28734863 16.1745624,3.50028283 16.4389712,3.50028283 C16.7033801,3.50028283 16.9174253,3.28734863 16.9174253,3.0247163 C16.9174253,1.88125556 17.8524009,0.951133071 19.0014217,0.951133071 C20.1508487,0.951133071 21.0858243,1.88125556 21.0858243,3.0247163 C21.0858243,4.16777299 20.1508487,5.09789548 19.0014217,5.09789548 C18.7374191,5.09789548 18.5229677,5.31082969 18.5229677,5.57346201 L18.5229677,7.5589624 C18.4693548,7.57067984 18.4149297,7.57876084 18.3621291,7.59451878 L1.59552283,12.5724115 C0.539512166,12.8863581 -0.136334662,13.9405239 0.0232854122,15.0245893 C0.182905486,16.1086547 1.13290893,16.9268555 2.23481545,16.9268555 L5.34760997,16.9268555 L5.34760997,28.9756185 L5.34760997,35 L32.6523904,35 L32.6523904,28.9756185 L32.6523904,16.9268555 L35.7651849,16.9268555 C36.8670915,16.9268555 37.8175011,16.1090588 37.976715,15.0249934 C38.136335,13.9401198 37.4604882,12.8863581 36.4040714,12.5724115 Z M6.3045181,29.9267516 L10.6162909,29.9267516 L10.6162909,34.0488669 L6.3045181,34.0488669 L6.3045181,29.9267516 Z M26.4276137,29.9267516 L26.4276137,34.0488669 L22.1158409,34.0488669 L22.1158409,29.9267516 L26.4276137,29.9267516 Z M21.1593389,34.0488669 L16.8410676,34.0488669 L16.8410676,29.9267516 L21.1597451,29.9267516 L21.1597451,34.0488669 L21.1593389,34.0488669 Z M15.8849718,34.0488669 L11.5727929,34.0488669 L11.5727929,29.9267516 L15.8849718,29.9267516 L15.8849718,34.0488669 Z M31.6962946,34.0488669 L27.3841157,34.0488669 L27.3841157,29.9267516 L31.6962946,29.9267516 L31.6962946,34.0488669 Z" id="Shape" fill="#000000"></path><path d="M6.3045181,28.9752144 L6.3045181,16.2399709 C6.3045181,14.9284255 7.37636892,13.8617342 8.69475763,13.8617342 L29.3056489,13.8617342 C30.6240376,13.8617342 31.6962946,14.9284255 31.6962946,16.2399709 L31.6962946,28.9752144 L6.3045181,28.9752144 Z" id="Path" fill="#3CA200"></path><path d="M37.0307731,14.8872124 C36.9393876,15.5078328 36.3959482,15.9757224 35.7655911,15.9757224 L32.6389872,15.9757224 C32.5025181,14.2633596 31.0614697,12.9110052 29.3056489,12.9110052 L8.69475763,12.9110052 C6.93934297,12.9110052 5.49788841,14.2633596 5.36141934,15.9757224 L2.2352216,15.9757224 C1.60445831,15.9757224 1.06061281,15.5078328 0.970039592,14.8872124 C0.878654053,14.266592 1.26531642,13.6637498 1.86967945,13.4843517 L18.6346611,8.50605497 C18.8742943,8.43494222 19.1265184,8.43494222 19.3661516,8.50605497 L36.1311333,13.4843517 C36.734684,13.6633458 37.1221586,14.266592 37.0307731,14.8872124 Z" id="Path" fill="#FFFFFF"></path></g></g></g></g></g></g></g></g></svg>