<svg xmlns="http://www.w3.org/2000/svg" xmlns:xlink="http://www.w3.org/1999/xlink" width="46px" height="57px" viewBox="0 0 46 57"><title>calendar</title><g id="Pages" stroke="none" stroke-width="1" fill="none" fill-rule="evenodd"><g id="Home-2-V5" transform="translate(-826, -3082)" fill-rule="nonzero"><g id="Group-95" transform="translate(0, 2435)"><g id="Group-94" transform="translate(306, 459)"><g id="Group-107" transform="translate(414, 170)"><g id="Group-35" transform="translate(82, 0)"><g transform="translate(0, 2)" id="calendar"><g transform="translate(24, 16)"><path d="M44.9134386,56.0654237 C35.3941194,56.0654237 0.606711474,55.9516147 0.256423246,55.9516147 C0.193653556,55.9522951 0.133481704,55.9293668 0.0907463821,55.8884841 C0.0478869257,55.8489504 0.0241046439,55.7960878 0.0244756364,55.7411795 C0.0244756364,55.4297354 0.767654713,24.4368388 0.000359095055,10.1819582 C-0.00318643518,10.1254883 0.019638179,10.0701174 0.0637285036,10.0293163 C0.107818828,9.9885152 0.169133301,9.96602393 0.232755123,9.96726163 C5.79003051,9.96726163 13.1602842,9.99677518 20.956564,10.0304448 C29.3918832,10.0641144 38.1159536,10.1019928 45.2258578,10.1019928 C45.2892297,10.1029118 45.3492896,10.1273231 45.3915347,10.169332 C45.4375592,10.2087443 45.4617897,10.2641419 45.4582297,10.3208454 C44.8661024,19.7188815 45.0270456,32.0209235 45.1548535,41.8861258 C45.2400587,48.2833559 45.3015958,53.3338008 45.1548535,55.8548145 C45.156214,55.9117261 45.1310561,55.9666065 45.0853381,56.0064577 C45.0396202,56.0463089 44.9774089,56.067586 44.9134386,56.0654237 L44.9134386,56.0654237 Z" id="Shape" fill="#FFFFFF"></path><path d="M44.9134386,56.0654237 C35.3941194,56.0654237 0.606711474,55.9516147 0.256423246,55.9516147 C0.193653556,55.9522951 0.133481704,55.9293668 0.0907463821,55.8884841 C0.0478869257,55.8489504 0.0241046439,55.7960878 0.0244756364,55.7411795 C0.0244756364,55.4297354 0.767654713,24.4368388 0.000359095055,10.1819582 C-0.00318643518,10.1254883 0.019638179,10.0701174 0.0637285036,10.0293163 C0.107818828,9.9885152 0.169133301,9.96602393 0.232755123,9.96726163 C5.79003051,9.96726163 13.1602842,9.99677518 20.956564,10.0304448 C29.3918832,10.0641144 38.1159536,10.1019928 45.2258578,10.1019928 C45.2892297,10.1029118 45.3492896,10.1273231 45.3915347,10.169332 C45.4375592,10.2087443 45.4617897,10.2641419 45.4582297,10.3208454 C44.8661024,19.7188815 45.0270456,32.0209235 45.1548535,41.8861258 C45.2400587,48.2833559 45.3015958,53.3338008 45.1548535,55.8548145 C45.156214,55.9117261 45.1310561,55.9666065 45.0853381,56.0064577 C45.0396202,56.0463089 44.9774089,56.067586 44.9134386,56.0654237 L44.9134386,56.0654237 Z M0.493104481,55.5391617 C3.56522691,55.5391617 35.2994469,55.648588 44.6909583,55.6527967 C44.832967,53.0854872 44.7714299,48.1360513 44.6909583,41.9071693 C44.5631504,32.0924714 44.4022072,19.8998558 44.9797094,10.5186545 C37.9124077,10.5186545 29.2972107,10.4807761 20.956564,10.4428978 C13.2691575,10.4134369 6.00304363,10.3797672 0.474169982,10.3797672 C1.19368094,24.1043511 0.559375227,52.7782518 0.493104481,55.5265356 L0.493104481,55.5391617 Z" id="Shape" fill="#000000"></path><path d="M3.80190814,52.0134419 C3.78212517,52.0127659 3.76343426,52.0054076 3.74983827,51.9929429 C3.74293332,51.9770889 3.74293332,51.9595992 3.74983827,51.9437453 L3.74983827,13.573719 C3.74324456,13.5592288 3.74324456,13.5431114 3.74983827,13.5286212 C3.76836973,13.523836 3.78811031,13.523836 3.80664177,13.5286212 L3.80664177,13.5286212 L41.4768271,13.6434156 C41.5194855,13.6433516 41.5547895,13.6721298 41.5572987,13.7090124 L41.7182419,51.8658491 C41.7182419,51.9043414 41.6822136,51.9355457 41.6377703,51.9355457 L3.82557627,52.0339409 L3.80190814,52.0134419 Z M3.85871164,13.6434156 L3.88237976,51.8781485 L41.5383642,51.7797533 L41.377421,13.75821 L3.85871164,13.6434156 Z" id="Shape" stroke="#000000" stroke-width="0.3" fill="#5AB691"></path><path d="M3.68583027,23.6721311 C12.9686621,22.8415301 19.9307859,22.4262295 24.5722018,22.4262295 C29.2136177,22.4262295 34.9471314,22.8415301 41.7727431,23.6721311 L41.7727431,13.704918 L3.68583027,13.704918 L3.68583027,23.6721311 Z" id="Path" stroke="#000000" stroke-width="0.3" fill="#3CA200"></path><path d="M39.6314225,16.1967213 L39.6314225,16.1967213 C39.3752769,16.1855965 39.1744425,15.952833 39.1797724,15.6732667 L39.6126038,0.493086566 C39.61503,0.35785777 39.6672879,0.229394786 39.7575811,0.136695996 C39.8478743,0.0439972055 39.9685913,-0.00512297396 40.0924821,0.000423520434 C40.3464279,0.0167458298 40.5445727,0.246392091 40.544133,0.523878006 L40.0924821,15.6732667 C40.0976091,15.810171 40.0513063,15.9434306 39.964279,16.0422353 C39.8772516,16.14104 39.7570346,16.1967213 39.6314225,16.1967213 Z" id="Path" fill="#000000"></path><path d="M34.8528308,16.1967213 L34.8528308,16.1967213 C34.7305418,16.1940266 34.6142459,16.1384378 34.5295397,16.0421897 C34.4448334,15.9459416 34.3986594,15.8169229 34.4011806,15.6835305 L34.5423213,8.08830852 C34.5447915,7.95491494 34.5957527,7.82805856 34.6839884,7.73566042 C34.772224,7.64326228 34.8905023,7.59289538 35.0127902,7.59564547 C35.1359083,7.59553849 35.2537339,7.65024256 35.3389971,7.74712349 C35.4242603,7.84400442 35.4695703,7.9746547 35.4644403,8.10883614 L35.3232997,15.7040581 C35.3131934,15.9794382 35.1054883,16.1969417 34.8528308,16.1967213 Z" id="Path" fill="#000000"></path><path d="M10.1208165,33.6390834 C9.65346288,33.645095 9.19057032,33.5471293 8.76529703,33.3522039 C8.20351963,33.0978925 7.76919902,32.6242771 7.56265572,32.0407549 C7.24283411,31.0483007 7.32712035,29.9688972 7.79706886,29.038766 C8.10898029,28.3511723 8.6871357,27.8217913 9.39719331,27.5736315 C10.343147,27.2547085 11.3835813,27.4068435 12.1999591,27.9834593 C12.9631151,28.5350231 13.4444417,29.3977343 13.514711,30.3399694 C13.4731803,31.745488 12.5604569,32.9743406 11.2317309,33.4136781 C10.876665,33.5510635 10.5010935,33.6272672 10.1208165,33.6390834 Z M10.4367646,28.4547613 C10.1845694,28.4549566 9.93381175,28.4929415 9.69275769,28.567464 L9.69275769,28.567464 C9.23347006,28.7245467 8.86268958,29.0711935 8.67357015,29.5203137 C8.32702116,30.2055407 8.2611685,30.9999456 8.49011639,31.733384 C8.61579726,32.050531 8.86132313,32.3047213 9.17297205,32.440337 C9.71119205,32.6807687 10.3210193,32.7027944 10.8750152,32.5018112 C11.7949592,32.2016528 12.4354323,31.3621959 12.4853316,30.3911978 C12.4257093,29.7657218 12.098335,29.1972711 11.5884465,28.8338521 C11.2541267,28.5881632 10.85089,28.4554327 10.4367646,28.4547613 L10.4367646,28.4547613 Z" id="Shape" fill="#000000"></path><path d="M18.7210871,33.6390834 C18.2537335,33.645095 17.7908409,33.5471293 17.3655677,33.3522039 C16.8037903,33.0978925 16.3694696,32.6242771 16.1629264,32.0407549 C15.8431047,31.0483007 15.927391,29.9688972 16.3973395,29.038766 C16.7092509,28.3511723 17.2874063,27.8217913 17.9974639,27.5736315 C18.9434177,27.2547085 19.9838519,27.4068435 20.8002297,27.9834593 C21.5633857,28.5350231 22.0447124,29.3977343 22.1149816,30.3399694 C22.0734509,31.745488 21.1607275,32.9743406 19.8320015,33.4136781 C19.4769356,33.5510635 19.1013641,33.6272672 18.7210871,33.6390834 Z M19.0370352,28.4547613 C18.78484,28.4549566 18.5340824,28.4929415 18.2930283,28.567464 L18.2930283,28.567464 C17.8337407,28.7245467 17.4629602,29.0711935 17.2738408,29.5203137 C16.9272918,30.2055407 16.8614391,30.9999456 17.090387,31.733384 C17.2160679,32.050531 17.4615938,32.3047213 17.7732427,32.440337 C18.3114627,32.6807687 18.92129,32.7027944 19.4752859,32.5018112 C20.3952298,32.2016528 21.0357029,31.3621959 21.0856022,30.3911978 C21.0259799,29.7657218 20.6986056,29.1972711 20.1887172,28.8338521 C19.8543973,28.5881632 19.4511606,28.4554327 19.0370352,28.4547613 L19.0370352,28.4547613 Z" id="Shape-Copy-2" fill="#000000"></path><path d="M10.1208165,42.3603949 C9.65346288,42.3664064 9.19057032,42.2684408 8.76529703,42.0735154 C8.20351963,41.8192039 7.76919902,41.3455886 7.56265572,40.7620663 C7.24283411,39.7696122 7.32712035,38.6902087 7.79706886,37.7600775 C8.10898029,37.0724838 8.6871357,36.5431028 9.39719331,36.294943 C10.343147,35.9760199 11.3835813,36.128155 12.1999591,36.7047708 C12.9631151,37.2563346 13.4444417,38.1190458 13.514711,39.0612808 C13.4731803,40.4667995 12.5604569,41.695652 11.2317309,42.1349896 C10.876665,42.272375 10.5010935,42.3485787 10.1208165,42.3603949 Z M10.4367646,37.1760728 C10.1845694,37.1762681 9.93381175,37.214253 9.69275769,37.2887755 L9.69275769,37.2887755 C9.23347006,37.4458582 8.86268958,37.7925049 8.67357015,38.2416252 C8.32702116,38.9268522 8.2611685,39.7212571 8.49011639,40.4546955 C8.61579726,40.7718425 8.86132313,41.0260327 9.17297205,41.1616485 C9.71119205,41.4020802 10.3210193,41.4241058 10.8750152,41.2231227 C11.7949592,40.9229642 12.4354323,40.0835074 12.4853316,39.1125093 C12.4257093,38.4870333 12.098335,37.9185825 11.5884465,37.5551635 C11.2541267,37.3094747 10.85089,37.1767442 10.4367646,37.1760728 L10.4367646,37.1760728 Z" id="Shape-Copy-4" fill="#000000"></path><path d="M27.3213577,33.6390834 C26.8540041,33.645095 26.3911116,33.5471293 25.9658383,33.3522039 C25.4040609,33.0978925 24.9697403,32.6242771 24.763197,32.0407549 C24.4433754,31.0483007 24.5276616,29.9688972 24.9976101,29.038766 C25.3095216,28.3511723 25.887677,27.8217913 26.5977346,27.5736315 C27.5436883,27.2547085 28.5841225,27.4068435 29.4005003,27.9834593 C30.1636563,28.5350231 30.644983,29.3977343 30.7152522,30.3399694 C30.6737215,31.745488 29.7609981,32.9743406 28.4322721,33.4136781 C28.0772063,33.5510635 27.7016347,33.6272672 27.3213577,33.6390834 Z M27.6373059,28.4547613 C27.3851107,28.4549566 27.134353,28.4929415 26.893299,28.567464 L26.893299,28.567464 C26.4340113,28.7245467 26.0632308,29.0711935 25.8741114,29.5203137 C25.5275624,30.2055407 25.4617098,30.9999456 25.6906576,31.733384 C25.8163385,32.050531 26.0618644,32.3047213 26.3735133,32.440337 C26.9117333,32.6807687 27.5215606,32.7027944 28.0755565,32.5018112 C28.9955004,32.2016528 29.6359735,31.3621959 29.6858728,30.3911978 C29.6262506,29.7657218 29.2988762,29.1972711 28.7889878,28.8338521 C28.4546679,28.5881632 28.0514312,28.4554327 27.6373059,28.4547613 L27.6373059,28.4547613 Z" id="Shape-Copy-3" fill="#000000"></path><path d="M18.7210871,42.3603949 C18.2537335,42.3664064 17.7908409,42.2684408 17.3655677,42.0735154 C16.8037903,41.8192039 16.3694696,41.3455886 16.1629264,40.7620663 C15.8431047,39.7696122 15.927391,38.6902087 16.3973395,37.7600775 C16.7092509,37.0724838 17.2874063,36.5431028 17.9974639,36.294943 C18.9434177,35.9760199 19.9838519,36.128155 20.8002297,36.7047708 C21.5633857,37.2563346 22.0447124,38.1190458 22.1149816,39.0612808 C22.0734509,40.4667995 21.1607275,41.695652 19.8320015,42.1349896 C19.4769356,42.272375 19.1013641,42.3485787 18.7210871,42.3603949 Z M19.0370352,37.1760728 C18.78484,37.1762681 18.5340824,37.214253 18.2930283,37.2887755 L18.2930283,37.2887755 C17.8337407,37.4458582 17.4629602,37.7925049 17.2738408,38.2416252 C16.9272918,38.9268522 16.8614391,39.7212571 17.090387,40.4546955 C17.2160679,40.7718425 17.4615938,41.0260327 17.7732427,41.1616485 C18.3114627,41.4020802 18.92129,41.4241058 19.4752859,41.2231227 C20.3952298,40.9229642 21.0357029,40.0835074 21.0856022,39.1125093 C21.0259799,38.4870333 20.6986056,37.9185825 20.1887172,37.5551635 C19.8543973,37.3094747 19.4511606,37.1767442 19.0370352,37.1760728 L19.0370352,37.1760728 Z" id="Shape-Copy-5" fill="#000000"></path><path d="M6.59480428,16.1967213 L6.59480428,16.1967213 C6.33865867,16.1855965 6.1378242,15.952833 6.14315412,15.6732667 L6.57598553,0.493086566 C6.57841174,0.35785777 6.63066963,0.229394786 6.72096286,0.136695996 C6.81125609,0.0439972055 6.93197303,-0.00512297396 7.05586382,0.000423520434 C7.30980968,0.0167458298 7.50795446,0.246392091 7.50751472,0.523878006 L7.05586382,15.6732667 C7.06099089,15.810171 7.01468808,15.9434306 6.92766071,16.0422353 C6.84063335,16.14104 6.72041638,16.1967213 6.59480428,16.1967213 Z" id="Path" fill="#000000" transform="translate(6.8253, 8.0984) scale(-1, 1) translate(-6.8253, -8.0984)"></path><path d="M11.6740986,16.1967213 L11.6740986,16.1967213 C11.5518097,16.1940266 11.4355138,16.1384378 11.3508075,16.0421897 C11.2661013,15.9459416 11.2199273,15.8169229 11.2224484,15.6835305 L11.3635891,8.08830852 C11.3660593,7.95491494 11.4170206,7.82805856 11.5052562,7.73566042 C11.5934919,7.64326228 11.7117702,7.59289538 11.834058,7.59564547 C11.9571761,7.59553849 12.0750018,7.65024256 12.160265,7.74712349 C12.2455282,7.84400442 12.2908382,7.9746547 12.2857082,8.10883614 L12.1445675,15.7040581 C12.1344613,15.9794382 11.9267562,16.1969417 11.6740986,16.1967213 Z" id="Path" fill="#000000" transform="translate(11.7542, 11.8961) scale(-1, 1) translate(-11.7542, -11.8961)"></path></g></g></g></g></g></g></g></g></svg>