<svg xmlns="http://www.w3.org/2000/svg" width="49" height="63" viewBox="0 0 49 63"><g fill="none" fill-rule="evenodd"><path d="M44.46 58c-9.42 0-43.86-.13-44.2-.13a.22.22 0 0 1-.17-.07.24.24 0 0 1-.07-.17c0-.35.74-35.3-.02-51.39 0-.06.02-.12.06-.17.05-.05.1-.07.17-.07 5.5 0 12.8.03 20.52.07 8.35.04 16.98.08 24.02.08.06 0 .12.03.16.08.05.04.07.1.07.17-.59 10.6-.43 24.48-.3 35.6.08 7.22.14 12.92 0 15.76 0 .07-.02.13-.07.17a.23.23 0 0 1-.17.07Z" fill="#FFF" fill-rule="nonzero"></path><path d="M44.91 58.23c-9.52 0-44.3-.13-44.65-.13a.22.22 0 0 1-.17-.07.24.24 0 0 1-.07-.16c0-.36.75-35.38-.02-51.5 0-.06.02-.12.06-.17.05-.04.1-.07.17-.07 5.56 0 12.93.04 20.73.08 8.43.03 17.16.08 24.27.08.06 0 .12.02.16.07.05.05.07.1.07.17-.6 10.62-.43 24.53-.3 35.68.08 7.23.14 12.93 0 15.78a.23.23 0 0 1-.25.24ZM.5 57.63c3.08 0 34.8.13 44.2.14.14-2.9.08-8.5 0-15.54-.13-11.1-.29-24.87.29-35.47-7.07 0-15.68-.05-24.02-.09C13.26 6.64 6 6.6.47 6.6 1.2 22.11.56 54.52.5 57.62v.02Z" fill="#000" fill-rule="nonzero"></path><path d="M4.06 54.14c-.02 0-.04 0-.05-.02V12.17a.1.1 0 0 1 .05 0l37.7.13c.04 0 .08.03.08.07L42 53.98c0 .05-.04.08-.08.08l-37.84.1-.02-.02ZM4 12.17l.02 42L42 54.06l-.16-41.77L4 12.17Z" stroke="#000" stroke-width=".3" fill="#5AB691" fill-rule="nonzero"></path><path d="M3.69 19.84c9.28-.67 16.24-1 20.88-1 4.64 0 10.38.33 17.2 1v-8H3.7v8Z" stroke="#000" stroke-width=".3" fill="#3CA200" fill-rule="nonzero"></path><path d="M22.9.4A3.09 3.09 0 0 1 26 3.57h5l.6 4.6-16.6.6-.6-4.6 5.41-.6A3.1 3.1 0 0 1 22.91.4Z" stroke="#000" stroke-width=".8" fill="#FFF"></path><path stroke="#000" stroke-linecap="round" stroke-linejoin="round" d="M9.5 27.67h26M9.5 33.67h22M9.5 39.67h16"></path><path d="M37.48 42.7c1.87-.37 4.7-.6 7.04.8 1.6.97 2.95 2.69 3.64 5.63.45 2 .84 5.34-.47 8.13-.87 1.83-2.48 3.41-5.3 4.19-2.78.74-5.17.47-7.06-.43a8.72 8.72 0 0 1-4.47-5.03c-.91-2.63-.85-6 .5-8.72 1.11-2.22 3.1-4 6.12-4.58Z" stroke="#000" stroke-width=".5" fill="#FFF"></path><path d="M43.71 47.07c-.47 1.14-1.07 2.13-1.54 3.33a52.54 52.54 0 0 0-2.12 7.23c-.32 1.35-1.5 1.58-2.55.58-.53-.5-2.35-2.54-2.56-3.13-.38-1.13.76-1.87 2.07-1.01 1.18.77 1.08.96 1.57-.8.47-1.64 2.1-7.13 3.62-7.9 1.02-.51 1.98.32 1.6 1.47l-.09.23Z" fill="#3CA200"></path></g></svg>