<svg xmlns="http://www.w3.org/2000/svg" width="79" height="78" viewBox="0 0 79 78"><g fill="none" fill-rule="evenodd"><path d="M26.71 14.88C4.7 19.08-.43 42.53 5 58.08c4.4 12.62 18.02 23.06 37.71 17.8 23.26-6.3 21.48-29.24 19-40-5.6-23.68-24.68-22.97-35-21Z" fill="#FFF"></path><path d="M26.71 14.88c10.32-1.97 29.4-2.68 35 21 2.48 10.76 4.26 33.7-19 40C23.01 81.14 9.41 70.7 5 58.08c-5.43-15.55-.31-39 21.71-43.2Zm.1.5C16.7 17.3 9.63 23.45 6.02 32.42a37.42 37.42 0 0 0-.55 25.5c4.96 14.2 19.48 22.18 37.11 17.48 10.36-2.8 16.37-9.09 18.8-17.98 1.81-6.62 1.5-14.2-.16-21.42-2.5-10.61-7.86-16.94-15.41-19.77-5.67-2.13-12.1-2.18-19-.85Z" fill="#000" fill-rule="nonzero"></path><g fill-rule="nonzero"><path d="M29.5 29.33c-.85 2.68-5.48 6.15-8.19 6.18-2.7.03-3.61-1.27-4.46-3.93-2.58 1.9-4.57 3.87-7.08 4.57A7.64 7.64 0 0 1 .64 30.5c-.89-4 1.91-8.5 5.81-9.35-2.6.37-4.9-2.4-4.71-5.1.34-2.72 2.18-5.01 4.77-5.96 2.45-.95 5.17-.88 7.84-1.03-.76-2.7.79-5.75 3.13-7.23A10.73 10.73 0 0 1 25.43.75a9.58 9.58 0 0 1 4.77 2.33 6.22 6.22 0 0 1 1.84 5.18c2.62-2.75 6.61-4.39 10.12-3.22C45.68 6.21 48 10.8 48 13.81c1.91-1.98 4.39-3.52 7.07-3.14 5.31.76 6.11 5.36 3.18 10.94 1.7-.58 3.57-.4 5.12.5a6.12 6.12 0 0 1 2.97 4.16c.73 3.13-.83 7.9-3.19 10.08-2.36 2.2-10.1 3.58-15.05-.63a14.13 14.13 0 0 1-4.5-8.05c-1.8 2.53-3.12 4.26-7.14 5.2-2.94.67-6.23-.75-6.96-3.54Z" fill="#3CA200"></path><path d="M56.1 38.91c-3.02.07-5.96-.93-8.3-2.83a14.08 14.08 0 0 1-4.4-7.3c-1.54 2.4-4.01 4.04-6.83 4.54a6.48 6.48 0 0 1-7.1-2.83c-1.54 2.63-5.55 5.43-8.16 5.46h-.1c-2.67 0-3.75-1.29-4.6-3.65l-1.3 1.01a16.26 16.26 0 0 1-5.41 3.25 7.7 7.7 0 0 1-5.93-.89 8.04 8.04 0 0 1-3.82-5.09 8.7 8.7 0 0 1 4.35-9.24 4.54 4.54 0 0 1-1.45-.94A5.64 5.64 0 0 1 1.27 16c.21-3.07 2.7-5.4 5.07-6.35 2.1-.7 4.3-1.04 6.5-.99h.96a7.45 7.45 0 0 1 3.46-7.19 11.15 11.15 0 0 1 8.3-1.12c1.86.33 3.6 1.17 4.99 2.43a6.7 6.7 0 0 1 2 4.36c2.93-2.57 6.68-3.56 9.78-2.53 3.26 1.08 5.65 4.95 6.08 8.19 2.24-2.03 4.5-2.9 6.73-2.58a5.82 5.82 0 0 1 4.65 2.89c1.01 1.94.78 4.72-.65 7.78 1.43-.24 2.9 0 4.2.67a6.86 6.86 0 0 1 3.47 4.61c.76 3.25-.8 8.17-3.33 10.53-1.3 1.21-4.19 2.21-7.38 2.21Zm-12.5-11.7h.1c.18.03.32.17.36.35.54 3 2.07 5.74 4.36 7.8 4.64 3.95 12.13 2.82 14.41.65 2.29-2.17 3.75-6.72 3.06-9.65a5.89 5.89 0 0 0-3-4c-1.37-.73-2.99-.85-4.45-.33a.47.47 0 0 1-.52-.12.45.45 0 0 1-.07-.53c1.68-3.2 2.07-6 1.1-7.87a4.88 4.88 0 0 0-3.94-2.4c-2.16-.3-4.4.71-6.68 3.02a.47.47 0 0 1-.51.1.46.46 0 0 1-.3-.43c0-2.71-2.1-7.2-5.5-8.33-3.1-1.02-6.87.2-9.65 3.1a.48.48 0 0 1-.54.1.47.47 0 0 1-.27-.47 5.8 5.8 0 0 0-1.69-4.73 9.11 9.11 0 0 0-4.51-2.23 10.24 10.24 0 0 0-7.64 1 6.37 6.37 0 0 0-2.93 6.71c.04.14.02.28-.06.4a.46.46 0 0 1-.37.19l-1.48.06c-2.11-.04-4.21.28-6.2.95-2.1.84-4.3 2.83-4.48 5.56a4.7 4.7 0 0 0 1.5 3.69c.7.7 1.69 1.05 2.68.94a.48.48 0 1 1 .17.94c-3.64.8-6.3 5.08-5.46 8.8a7.06 7.06 0 0 0 3.35 4.5 6.68 6.68 0 0 0 5.2.79c1.8-.5 3.31-1.7 5.08-3.08.58-.47 1.19-.95 1.84-1.42a.47.47 0 0 1 .72.24c.82 2.52 1.59 3.64 4.01 3.6 2.43-.03 6.96-3.37 7.75-5.85.06-.2.25-.33.46-.33.21 0 .4.15.45.35.68 2.64 3.82 3.78 6.4 3.2 3.94-.94 5.17-2.64 6.86-5a.5.5 0 0 1 .4-.27Z" fill="#000"></path></g><path d="M60.23 44.46c-11.36 2.2-14 14.42-11.2 22.53 2.27 6.58 9.3 12.03 19.45 9.28 12-3.28 11.08-15.24 9.8-20.86-2.88-12.35-12.73-11.98-18.05-10.95Z" fill="#FFF"></path><path d="M60.23 44.46c5.32-1.03 15.17-1.4 18.06 10.95 1.27 5.62 2.2 17.58-9.8 20.86-10.17 2.75-17.19-2.7-19.46-9.28-2.8-8.1-.16-20.34 11.2-22.53Zm.14.74c-9.65 1.86-13.81 12.33-10.63 21.55 2.48 7.16 9.7 11.19 18.55 8.8 5.17-1.42 8.14-4.56 9.35-9.03.9-3.36.75-7.25-.08-10.94-2.26-9.62-8.63-12.04-17.19-10.38Z" fill="#000" fill-rule="nonzero"></path><path d="M70.57 52.11c-.77 1.88-1.77 3.52-2.54 5.5a87.17 87.17 0 0 0-3.5 11.95c-.52 2.23-2.47 2.62-4.2.97-.86-.83-3.86-4.2-4.2-5.19-.63-1.86 1.25-3.09 3.41-1.66 1.93 1.28 1.77 1.58 2.59-1.31.76-2.72 3.44-11.8 5.94-13.07 1.69-.85 3.27.52 2.63 2.43l-.13.38Z" fill="#3CA200"></path><path d="M32.86 55.98a4.49 4.49 0 0 1-1.81-.41c-.31-.12-.58-.3-.79-.55-.27-.4-.34-.9-.16-1.35.12-.33.3-.64.5-.93l.09-.13a12.12 12.12 0 0 0 1.83-5.4.23.23 0 0 1 .26-.21c.06 0 .12.03.16.08.04.04.05.1.05.16a12.5 12.5 0 0 1-1.9 5.59l-.08.14c-.2.27-.36.56-.47.86-.13.32-.1.67.1.95.15.18.36.32.6.4a3.9 3.9 0 0 0 1.79.38c.6-.03 1.16-.28 1.55-.71.09-.1.23-.11.33-.04.1.08.12.22.04.32a2.7 2.7 0 0 1-1.9.87l-.2-.02Z" fill="#000" fill-rule="nonzero"></path><g fill="#000" fill-rule="nonzero"><path d="M20 44.57c-.04-.6.29-1.16.83-1.42a1.5 1.5 0 0 1 1.64.23c.45.4.6 1.03.4 1.6-.21.55-.75.93-1.35.95-.38.02-.76-.11-1.04-.37a1.42 1.42 0 0 1-.48-1ZM42.54 44.71c-.04-.6.28-1.16.83-1.42a1.5 1.5 0 0 1 1.64.22c.45.4.6 1.04.4 1.6-.22.56-.75.94-1.36.95-.8.04-1.47-.56-1.5-1.35ZM28.07 68.35c-.87 0-1.73-.15-2.54-.44a.46.46 0 0 1-.29-.6c.1-.23.36-.35.6-.27 2.43.84 15.12-2.74 16.98-4.5a.46.46 0 0 1 .66 0c.18.18.18.47 0 .65-1.46 1.39-13.4 5.16-15.41 5.16Z"></path></g></g></svg>