<svg xmlns:xlink="http://www.w3.org/1999/xlink"  xmlns="http://www.w3.org/2000/svg" width="45" height="26" viewBox="0 0 45 26"><g fill="none" fill-rule="evenodd"><path d="M5.88 4.53c-.29-.18-.64-.28-1-.28H1.92C.87 4.25 0 5.1 0 6.17v19.37c0 .26.2.46.46.46h44.08c.25 0 .46-.2.46-.46V6.17c0-1.06-.87-1.92-1.93-1.92h-2.94c-.37 0-.72.1-1.01.28v-.06A4.49 4.49 0 0 0 34.62 0h-8.08a4.5 4.5 0 0 0-4.04 2.5A4.5 4.5 0 0 0 18.46 0h-8.08c-2.48 0-4.5 2-4.5 4.47v.06Z" fill="#FFF"></path><path d="M18.46 0a4.5 4.5 0 0 1 4.04 2.5l.06-.12A4.5 4.5 0 0 1 26.54 0h8.08c2.48 0 4.5 2 4.5 4.47v.06c.29-.18.64-.28 1-.28h2.95c1.06 0 1.93.86 1.93 1.92v19.37c0 .26-.2.46-.46.46H.46a.46.46 0 0 1-.46-.46V6.17C0 5.1.87 4.25 1.93 4.25h2.94c.37 0 .72.1 1.01.28v-.12A4.49 4.49 0 0 1 10.39 0h8.08Zm0 .1h-8.08A4.38 4.38 0 0 0 6 4.48v.06l-.16.1a1.84 1.84 0 0 0-.96-.27H1.93c-1 0-1.82.8-1.82 1.8v19.38c0 .2.16.35.35.35h44.08c.2 0 .35-.15.35-.35V6.17c0-1-.82-1.81-1.82-1.81h-2.94c-.34 0-.67.09-.96.26l-.16-.09v-.06C39 2.07 37.04.1 34.6.1h-8.07a4.4 4.4 0 0 0-3.94 2.44h-.2A4.4 4.4 0 0 0 18.46.1Z" fill="#000" fill-rule="nonzero"></path><path d="M5.88 6.17v18.92H.92V6.17c0-.56.45-1.01 1.01-1.01h2.94c.56 0 1.02.45 1.02 1Z" fill="#FFF"></path><path d="M4.87 5.16c.56 0 1.02.45 1.02 1V25.1H.91V6.17c0-.56.45-1.01 1.01-1.01h2.94Zm0 .23H1.93a.78.78 0 0 0-.78.78v18.68h4.5V6.17c0-.4-.3-.72-.67-.77h-.1Z" fill="#000" fill-rule="nonzero"></path><path d="M39.12 6.17c0-.56.45-1.01 1-1.01h2.95c.56 0 1.01.45 1.01 1V25.1h-4.96V6.17Z" fill="#FFF"></path><path d="M43.07 5.16c.56 0 1.01.45 1.01 1V25.1h-4.96V6.17c0-.56.45-1.01 1-1.01h2.95Zm0 .23h-2.94a.78.78 0 0 0-.78.78v18.68h4.5V6.17c0-.4-.3-.72-.68-.77h-.1Z" fill="#000" fill-rule="nonzero"></path><path d="M38.2 16.3c0-1.22-1-2.22-2.24-2.22H9.05c-1.24 0-2.25 1-2.25 2.23V19h26.72v.91H6.8v5.17h31.4v-5.17h-4.68v-.9h4.68V16.3Z" fill="#FFF"></path><path d="M38.2 19.92v5.17H6.8v-5.17h31.4Zm-.11.11H6.9v4.95H38.1v-4.95Zm-2.13-5.95c1.23 0 2.24 1 2.24 2.23V19H6.8v-2.7c0-1.23 1-2.23 2.25-2.23h26.9Zm0 .11H9.05c-1.18 0-2.14.95-2.14 2.12v2.6H38.1v-2.6c0-1.17-.96-2.12-2.13-2.12Z" fill="#000" fill-rule="nonzero"></path><path d="M38.2 16.3c0-1.22-1-2.22-2.24-2.22H9.05c-1.24 0-2.25 1-2.25 2.23V19h26.72v.91H6.8h31.4-4.68v-.9h4.68V16.3Z" fill="#3CA200"></path><path d="M35.96 14.08c1.23 0 2.24 1 2.24 2.23V19H6.8v-2.7c0-1.23 1-2.23 2.25-2.23h26.9Zm0 .11H9.05c-1.18 0-2.14.95-2.14 2.12v2.6H38.1v-2.6c0-1.17-.96-2.12-2.13-2.12Z" fill="#000" fill-rule="nonzero"></path><path d="M38.2 4.47C38.2 2.5 36.6.9 34.62.9h-8.08a3.57 3.57 0 0 0-3.58 3.56v8.7h13c.87 0 1.66.35 2.24.93V4.47Z" fill="#FFF"></path><path d="M34.62.91c1.97 0 3.58 1.6 3.58 3.56v9.63a3.16 3.16 0 0 0-2.24-.93h-13v-8.7c0-1.97 1.6-3.56 3.58-3.56h8.08Zm0 .24h-8.08a3.34 3.34 0 0 0-3.35 3.32v8.46h12.77c.68 0 1.34.2 1.89.58l.11.08V4.47c0-1.77-1.4-3.22-3.16-3.32h-.18Z" fill="#000" fill-rule="nonzero"></path><g fill="#000" fill-rule="nonzero"><path d="M29.3 7.9h-.01a.15.15 0 0 1-.1-.06.16.16 0 0 1-.04-.11 6.6 6.6 0 0 1 1.43-3.47.15.15 0 0 1 .21-.02c.03.02.05.06.06.1 0 .04-.01.08-.04.11a6.33 6.33 0 0 0-1.36 3.31c0 .08-.07.14-.15.14ZM31 8.87h-.03a.16.16 0 0 1-.12-.19c.13-.72.42-1.4.85-2a.15.15 0 0 1 .21-.03c.07.05.08.15.03.22-.4.55-.67 1.2-.79 1.87a.16.16 0 0 1-.15.13Z"></path></g><path d="M6.8 14.1a3.16 3.16 0 0 1 2.25-.93h13v-8.7C22.04 2.5 20.43.9 18.45.9h-8.08A3.57 3.57 0 0 0 6.8 4.47v9.63Z" fill="#FFF"></path><path d="M18.46.91c1.98 0 3.58 1.6 3.58 3.56v8.7h-13c-.87 0-1.66.35-2.24.93V4.47C6.8 2.5 8.4.9 10.38.9h8.08Zm0 .24h-8.08a3.33 3.33 0 0 0-3.34 3.32v9.12l.11-.08a3.4 3.4 0 0 1 1.67-.57H21.8V4.46c0-1.77-1.4-3.22-3.17-3.32h-.18Z" fill="#000" fill-rule="nonzero"></path><g fill="#000" fill-rule="nonzero"><path d="M13.32 8.37h-.02a.15.15 0 0 1-.1-.06.16.16 0 0 1-.03-.12 6.6 6.6 0 0 1 1.42-3.47.15.15 0 0 1 .21-.02c.04.03.05.07.06.1 0 .05-.01.09-.04.12a6.33 6.33 0 0 0-1.35 3.3c-.01.09-.08.15-.15.15ZM15.01 9.33H15a.16.16 0 0 1-.12-.18c.13-.72.42-1.4.84-2a.15.15 0 0 1 .21-.03c.07.05.09.15.04.21-.4.56-.67 1.2-.8 1.88a.16.16 0 0 1-.15.12Z"></path></g></g></svg>