<svg xmlns:xlink="http://www.w3.org/1999/xlink"  xmlns="http://www.w3.org/2000/svg" width="42" height="38" viewBox="0 0 42 38"><g fill="none" fill-rule="evenodd"><path d="M9.7 18.4c6.97-6.72 8.96-8.82 15.98-15.53.61.63 1.19 1.3 1.73 2C20.89 10.5 11.16 20.2 11.13 20.2c-.74-.8-.58-.96-1.43-1.8Z" fill="#FFF" fill-rule="nonzero"></path><path d="M11.13 20.35h-.04a5.36 5.36 0 0 1-.7-.88 4.56 4.56 0 0 0-.78-.97.14.14 0 0 1-.04-.1c0-.04.01-.07.04-.1 3.06-2.95 5.13-4.98 7.15-6.96 2.52-2.48 4.9-4.81 8.84-8.57a.13.13 0 0 1 .1-.04c.03 0 .07.02.1.05.2.24.38.44.57.63.41.43.8.9 1.15 1.38.04.06.03.14-.02.18-5.3 4.58-12.85 11.99-15.33 14.42l-.7.68c-.24.23-.29.28-.34.28Zm-1.25-1.94c.28.27.52.57.72.9.15.25.33.5.52.71l.85-.83c2.47-2.42 9.94-9.75 15.24-14.33-.33-.44-.68-.86-1.06-1.25l-.49-.53c-3.87 3.7-6.23 6.01-8.73 8.46-1.97 1.94-4.02 3.96-7.05 6.87Z" fill="#000" fill-rule="nonzero"></path><path d="M27.4 4.87c1.56-1.66 3.09-2 3.84-1.88 1.25.2 1.71 2.4-1.03 5.65a74.85 74.85 0 0 1-3.91 4.33c-2.52 2.53-5.46 4.62-7.56 7.54-1.54 2.17-3 4.56-3.38 7.24-.18 1.23.2 2.71.68 3.86.48 1.15 1.6 2.05 2.75 1.93.62-.06 1.28-.62 1.12-1.25a4.45 4.45 0 0 0-.8-1.52c-2-1.78-.33-5.72 1.15-7.7 2.57-3.47 6.15-5.98 8.9-9.3 1.18-1.43 4.25-4.9 4.98-6.62 1.16-2.76.53-5.13-1.38-6.54-2.04-1.5-5.5 1.23-7.09 2.28.72.72.95 1.33 1.74 1.98Z" fill="#FFF" fill-rule="nonzero"></path><path d="M18.58 33.67c-1.2 0-2.23-.98-2.66-2.02-.28-.67-.91-2.39-.7-3.92.41-2.8 1.96-5.26 3.41-7.3 1.4-1.94 3.19-3.54 4.92-5.09.88-.8 1.8-1.61 2.65-2.47a70.85 70.85 0 0 0 3.9-4.32c1.87-2.2 2.2-3.9 1.89-4.75a.98.98 0 0 0-.77-.68c-.64-.1-2.13.17-3.72 1.84a.14.14 0 0 1-.18 0c-.4-.34-.75-.74-1.05-1.17-.21-.3-.44-.57-.69-.84a.14.14 0 0 1-.03-.1c0-.05.03-.08.06-.1l.58-.4c1.79-1.23 4.77-3.28 6.67-1.88 2.03 1.5 2.55 4 1.41 6.7-.62 1.48-2.93 4.22-4.3 5.84-.28.32-.5.6-.69.83a48.07 48.07 0 0 1-4.12 4.22 40.1 40.1 0 0 0-4.8 5.08c-1.58 2.14-2.99 5.88-1.15 7.51.32.28.75 1.24.84 1.6.07.27.01.56-.16.79a1.56 1.56 0 0 1-1.31.63ZM30.94 2.83a2 2 0 0 1 .32.02c.46.08.84.41.98.86.44 1.19-.27 3.06-1.92 5.02a73.86 73.86 0 0 1-3.92 4.34c-.86.86-1.78 1.68-2.66 2.48a31.99 31.99 0 0 0-4.88 5.05c-1.44 2-2.96 4.43-3.36 7.17-.21 1.46.4 3.12.68 3.77.42 1.01 1.46 1.97 2.61 1.84.36-.04.68-.23.89-.51a.7.7 0 0 0 .12-.57 4.35 4.35 0 0 0-.76-1.46c-2.08-1.84-.41-5.81 1.12-7.88a40.3 40.3 0 0 1 4.82-5.12 47.48 47.48 0 0 0 4.09-4.19l.69-.83c1.37-1.62 3.66-4.33 4.27-5.76 1.1-2.57.6-4.96-1.33-6.38-1.74-1.28-4.63.7-6.35 1.88l-.45.32c.23.26.41.5.59.74.26.38.57.73.91 1.04 1.34-1.36 2.67-1.83 3.54-1.83Z" fill="#000" fill-rule="nonzero"></path><path d="M21.25 35.16c-.69-.02-1.42-.06-1.96-.51-1.05-.88-.7-2.64-.12-3.9 3.07-6.57 10.54-10.46 17.32-9.01 1.39.3 2.81.82 3.74 1.98.77.95 1.11 2.2 1.32 3.44.4 2.27.42 4.58.08 6.86-.02.35-.15.7-.36.98-.31.33-.8.36-1.24.36-2.38.03-14.77-.08-18.78-.2Z" fill="#FFF" fill-rule="nonzero"></path><path d="M38.72 35.5c-4 0-13.95-.1-17.47-.2-.61-.03-1.45-.05-2.05-.56-1.09-.9-.79-2.7-.15-4.06 3.1-6.63 10.61-10.54 17.47-9.09 1.76.38 3.02 1.04 3.81 2.03a7.57 7.57 0 0 1 1.36 3.5c.39 2.28.41 4.61.07 6.9-.02.38-.16.74-.4 1.05-.33.36-.84.4-1.33.4-.3.03-.74.03-1.3.03Zm-17.47-.48c4.02.13 16.41.24 18.78.2.43 0 .87-.03 1.14-.32.2-.26.3-.58.32-.9.34-2.26.32-4.56-.07-6.82a7.31 7.31 0 0 0-1.3-3.38c-.76-.94-1.96-1.57-3.66-1.93-6.73-1.43-14.11 2.41-17.16 8.94-.6 1.28-.9 2.93.07 3.74.49.4 1.14.46 1.88.48ZM16.3 30.38a.04.04 0 0 1-.05-.04c0-.02.01-.05.04-.05l1.43-.37a.05.05 0 0 1 .02.1l-1.43.35h-.01ZM17.5 27.73h-.02a6.45 6.45 0 0 0-1.44-.48.04.04 0 0 1 .05-.06 6.5 6.5 0 0 1 1.46.48v.04l-.05.02ZM18.33 25.26h-.02l-1.2-.75a.04.04 0 0 1 .04-.08l1.2.75a.04.04 0 0 1 0 .06l-.02.02ZM19.7 22.64h-.01l-1.16-.68a.04.04 0 0 1-.02-.06.04.04 0 0 1 .06-.02l1.16.69c.02.01.03.04.02.06a.04.04 0 0 1-.04.01ZM21.34 20.72h-.03l-1.12-.92a.05.05 0 0 1 .05-.07l1.13.92a.04.04 0 0 1 0 .07h-.03ZM23.09 18.97h-.03l-1.1-1.05a.04.04 0 0 1 0-.07.05.05 0 0 1 .06 0l1.1 1.06c.02.01.02.04 0 .06h-.03ZM24.74 17.27h-.03l-.96-.99a.05.05 0 0 1 0-.06.05.05 0 0 1 .06 0l.96 1c.02 0 .02.04 0 .05h-.03Z" fill="#000" fill-rule="nonzero"></path><path d="M33.16 29.3c-2.89.55-3.47 3.8-2.75 5.84.58 1.65 2.28 3.25 4.86 2.56 3.05-.83 3.08-4.01 2.75-5.42-.73-3.11-3.5-3.24-4.86-2.99Z" fill="#FFF" fill-rule="nonzero"></path><path d="M33.16 29.3c-2.89.55-3.47 3.8-2.75 5.84.58 1.65 2.28 3.25 4.86 2.56 3.05-.83 3.08-4.01 2.75-5.42-.73-3.11-3.5-3.24-4.86-2.99Z" fill="#FFF" fill-rule="nonzero"></path><path d="M33.46 30.6c-2 .38-2.4 2.63-1.9 4.04.4 1.15 1.58 2.26 3.37 1.78 2.11-.57 2.13-2.78 1.9-3.76-.5-2.15-2.43-2.24-3.37-2.06Z" fill="#3CA200"></path><path d="M33.69 31.58c-1.34.25-1.6 1.75-1.27 2.7.27.76 1.05 1.5 2.25 1.18 1.4-.38 1.42-1.85 1.27-2.5-.34-1.44-1.63-1.5-2.25-1.38Z" fill="#3CA200"></path><path d="M34.07 38a4.02 4.02 0 0 1-3.79-2.82 5.31 5.31 0 0 1 .33-4.22 3.61 3.61 0 0 1 2.52-1.79c.42-.08 4.13-.7 5.02 3.08.37 1.57.25 4.76-2.84 5.59-.4.1-.82.16-1.24.16Zm-.89-8.57c-.98.17-1.84.78-2.33 1.65a5.04 5.04 0 0 0-.31 4.02c.6 1.7 2.28 3.13 4.7 2.48 2.89-.77 3-3.78 2.65-5.26-.83-3.53-4.31-2.96-4.7-2.88v-.01Z" fill="#000" fill-rule="nonzero"></path><path d="M34.1 36.15a2.48 2.48 0 0 1-2.34-1.65 3 3 0 0 1 .16-2.43c.34-.59.92-1 1.6-1.1.27-.05 2.54-.4 3.1 1.8.22.93.15 2.8-1.76 3.28-.25.07-.5.1-.77.1Zm.01-5.14c-.2 0-.39.01-.58.05-.65.1-1.2.5-1.53 1.06a2.9 2.9 0 0 0-.16 2.35 2.42 2.42 0 0 0 3 1.5c1.84-.47 1.9-2.28 1.69-3.17-.38-1.55-1.65-1.8-2.41-1.8ZM26.46 15.8c-.02 0-.03 0-.04-.02a7.5 7.5 0 0 0-.92-.97.05.05 0 0 1 .06-.07 7.68 7.68 0 0 1 .94 1.02l-.01.03a.06.06 0 0 1-.03.01ZM28.01 14.12h-.03l-.86-.9a.04.04 0 0 1 .06-.06l.86.88a.05.05 0 0 1-.03.08ZM29.5 12.24h-.02a4.48 4.48 0 0 1-.84-.84l.01-.03a.04.04 0 0 1 .07 0c.23.3.5.56.8.8.02 0 .02.04 0 .05l-.01.02Z" fill="#000" fill-rule="nonzero"></path><path d="M4.04 15.68c.67-.75 1.84-.8 2.81-.4.8.26 1.5.73 2.06 1.35 1.3 1.31 2.5 2.71 3.6 4.19 1.38 1.87 2.22 3.49.71 5.51L4.04 15.68Z" fill="#3CA200"></path><path d="M13.22 26.47a.14.14 0 0 1-.1-.05L3.94 15.77a.14.14 0 0 1 0-.18c.74-.84 2.03-.83 2.96-.44.81.27 1.54.74 2.1 1.38a40.05 40.05 0 0 1 3.63 4.2c1.3 1.76 2.33 3.5.71 5.68a.13.13 0 0 1-.1.06h-.02Zm-9-10.79 9 10.43c1.24-1.78.67-3.22-.81-5.21a39.87 39.87 0 0 0-3.6-4.18 4.71 4.71 0 0 0-2-1.32c-.83-.34-1.92-.37-2.59.28ZM31.1 10.47h-.03a5.37 5.37 0 0 1-.88-.81l.01-.03a.05.05 0 0 1 .06 0c.26.28.55.54.86.76a.04.04 0 0 1-.03.08ZM32.5 8.56h-.03a5.02 5.02 0 0 1-.87-.72l.02-.03a.04.04 0 0 1 .06 0 4.95 4.95 0 0 0 .87.7v.03l-.05.02ZM33.93 6.05a4.2 4.2 0 0 1-1.3-.4v-.03a.04.04 0 0 1 .06-.02c.4.18.82.3 1.25.36.03 0 .04.03.04.05a.04.04 0 0 1-.05.04ZM32.6 3.5a.05.05 0 0 1-.01-.1 6 6 0 0 0 1.26-.63l.03.02c.02.02.02.04 0 .06-.4.26-.82.48-1.26.64h-.02ZM31.36 2.39h-.02a.04.04 0 0 1-.03-.06c.15-.49.27-.98.36-1.49 0-.02.03-.04.05-.03.02 0 .04.02.04.05-.1.5-.21 1-.36 1.5l-.04.03ZM29.42 2.81a.04.04 0 0 1-.04-.03 5.7 5.7 0 0 0-.62-1.16.05.05 0 0 1 0-.06.04.04 0 0 1 .07.01c.25.37.46.76.62 1.18 0 .02 0 .05-.03.06ZM24.19 33.45a69.71 69.71 0 0 0-4.43 0 .05.05 0 0 1-.04-.05c0-.02.02-.04.04-.05a74.25 74.25 0 0 1 4.46.02l.02.03a.04.04 0 0 1-.05.05ZM20.21 32.03a.04.04 0 0 1-.04-.04.04.04 0 0 1 .04-.05l1.81-.03a.05.05 0 0 1 0 .09l-1.8.03ZM.14 32.83H.09a.14.14 0 0 1-.08-.17c.19-.73.61-1.38 1.2-1.85.22-.15.46-.27.72-.34a4.03 4.03 0 0 1 .33-2.2c.5-1.22 1.36-1.97 2.27-2 .32-.01.63.05.92.17 0-.1.02-.19.03-.27.16-.93.63-1.85 1.5-2.9a.14.14 0 0 1 .18 0c.06.04.07.13.02.18a5.97 5.97 0 0 0-1.47 3.11l.27.14a3.64 3.64 0 0 1 1.79 1.84c.06.14.08.3.05.46a.5.5 0 0 1-.33.35c-.33.1-.67.03-.95-.17a2.96 2.96 0 0 1-1.1-2.45c-.28-.12-.58-.2-.89-.19-1.2.04-1.86 1.43-2.03 1.85a3.76 3.76 0 0 0-.32 2.03c.42-.07.85.01 1.2.22.29.15.48.41.54.72a.7.7 0 0 1-.15.53c-.1.12-.23.2-.39.21a.82.82 0 0 1-.43-.11A2.13 2.13 0 0 1 2 30.74c-.23.06-.44.16-.62.3a3.28 3.28 0 0 0-1.1 1.7.14.14 0 0 1-.15.1Zm2.12-2.14c.13.44.43.82.83 1.06.08.05.17.08.27.08.08 0 .15-.05.2-.11.07-.1.1-.2.1-.32a.77.77 0 0 0-.41-.53c-.3-.17-.65-.23-.99-.18Zm3.45-3.83c0 .82.36 1.59 1 2.1.2.14.45.2.69.14a.23.23 0 0 0 .16-.17c.01-.1 0-.2-.05-.3-.23-.64-.79-1.21-1.65-1.69a1.2 1.2 0 0 0-.15-.09v.01Z" fill="#000" fill-rule="nonzero"></path></g></svg>