<svg xmlns:xlink="http://www.w3.org/1999/xlink"  xmlns="http://www.w3.org/2000/svg" width="46" height="29" viewBox="0 0 46 29"><g fill="none" fill-rule="evenodd"><path d="M4.1 17h23v3H4.08v-3Z" fill="#FFF"></path><path d="M27.1 17v3h-23v-3h23Zm-.24.23H4.32v2.54h22.54v-2.54Z" fill="#000" fill-rule="nonzero"></path><path fill="#FFF" d="M26.1 6h15v18h-15z"></path><path d="M41.1 6v18h-15V6h15Zm-.24.23H26.32v17.54h14.54V6.23Z" fill="#000" fill-rule="nonzero"></path><g fill-rule="nonzero"><path d="M31.8 9.21c-.45.14-.66.79-.49 1.23.19.36.62.51 1 .35a.93.93 0 0 0 .62-.84.85.85 0 0 0-1.13-.74Z" fill="#FFF"></path><path d="M31.99 11c-.15 0-.3-.03-.44-.1a.74.74 0 0 1-.4-.4c-.1-.33-.07-.68.08-.97.1-.23.3-.4.52-.47a1 1 0 0 1 .92.13c.24.17.4.45.42.75-.01.46-.3.85-.74 1-.11.04-.24.06-.36.06Zm.1-1.6a.66.66 0 0 0-.2.04.5.5 0 0 0-.3.27c-.1.2-.12.42-.06.63.04.1.11.17.2.2.16.07.33.08.5.02a.68.68 0 0 0 .46-.6.62.62 0 0 0-.26-.45.57.57 0 0 0-.33-.11Z" fill="#000"></path></g><g fill-rule="nonzero"><path d="M32.8 17.21c-.45.14-.66.79-.49 1.23.19.36.62.51 1 .35a.93.93 0 0 0 .62-.84.85.85 0 0 0-1.13-.74Z" fill="#FFF"></path><path d="M31.99 19c-.15 0-.3-.03-.44-.1a.74.74 0 0 1-.4-.4c-.1-.33-.07-.68.08-.97.1-.23.3-.4.52-.47a1 1 0 0 1 .92.13c.24.17.4.45.42.75-.01.46-.3.85-.74 1-.11.04-.24.06-.36.06Zm.1-1.6a.66.66 0 0 0-.2.04.5.5 0 0 0-.3.27c-.1.2-.12.42-.06.63.04.1.11.17.2.2.16.07.33.08.5.02a.68.68 0 0 0 .46-.6.62.62 0 0 0-.26-.45.57.57 0 0 0-.33-.11Z" fill="#000"></path></g><path d="M26.5 13.5c2.65.33 4.81.5 6.5.5 1.69 0 4.22-.17 7.6-.5" fill="#FFF"></path><path d="m40.58 13.39.03.22c-3.38.34-5.92.5-7.61.5-1.7 0-3.86-.16-6.51-.5l.02-.22c2.65.33 4.8.5 6.49.5 1.68 0 4.21-.17 7.58-.5Z" fill="#000" fill-rule="nonzero"></path><path fill="#FFF" d="M3.1 5h3v24h-3z"></path><path d="M6.1 5v24h-3V5h3Zm-.24.23H3.32v23.54h2.54V5.23Z" fill="#000" fill-rule="nonzero"></path><path fill="#FFF" d="M39.1 5h3v24h-3z"></path><path d="M42.1 5v24h-3V5h3Zm-.24.23h-2.54v23.54h2.54V5.23Z" fill="#000" fill-rule="nonzero"></path><path fill="#3CA200" d="M.1 0h45l-1 7h-43z"></path><path d="m45.1 0-1 7h-43l-1-7h45Zm-.27.23H.36l.93 6.54h42.6l.94-6.54Z" fill="#000" fill-rule="nonzero"></path></g></svg>