<svg xmlns:xlink="http://www.w3.org/1999/xlink"  xmlns="http://www.w3.org/2000/svg" width="60" height="54" viewBox="0 0 60 54"><path d="M40.95 43.54c-6.22-4.6-11.6-6.56-20.87-7.12l9.51-7.69c7.74-.6 14.89.21 21.93 1.69-7.24-2.85-13.24-3.24-20.82-3.14l13.82-13.1c3.83.94 7.1.9 11.1.4-3.65.14-6.55.05-10.04-1.53L58.53 1.27 39.07 17.24c-1.23-3.31-1.95-6.3-1.57-10.33-1.25 4.2-.37 7.53.19 11.65l-13.97 11.9c.7-5.46.36-11.36-3.24-16.67 1.15 2.88 4.56 12.96 1.17 18.19L7.35 43.83C.72 2.6 29.65 5.43 60 0c-5.42 34.47-1.98 60.1-50.08 47.7L2.6 53.82c-1.18.98-4.56-2.22-1.02-2.18l17-13.34c9.1.07 15.7 1.85 22.38 5.25Z" fill="#" fill-rule="evenodd"></path></svg>