<svg xmlns="http://www.w3.org/2000/svg" xmlns:xlink="http://www.w3.org/1999/xlink" width="136px" height="796px" viewBox="0 0 136 796"><title>Line</title><g id="Pages" stroke="none" stroke-width="1" fill="none" fill-rule="evenodd" fill-opacity="0.597738199"><g id="Home-2-V5" transform="translate(-622, -2951)" fill="#000000" fill-rule="nonzero"><g id="Group-95" transform="translate(0, 2435)"><g id="Group-94" transform="translate(306, 459)"><path d="M426.978671,842.869059 L427.924623,843.193368 L427.762468,843.666343 C426.801872,846.468234 425.810843,849.296662 424.789184,852.151924 L424.620734,852.622694 L423.679194,852.285796 L423.847643,851.815025 C424.867811,848.96393 425.857369,846.139699 426.816517,843.342035 L426.978671,842.869059 Z M432.544997,825.78714 L433.500126,826.083331 L433.35203,826.560896 C432.473825,829.392841 431.562422,832.253439 430.617589,835.143047 L430.462197,835.618288 L429.511716,835.307503 L429.667109,834.832263 C430.610363,831.947482 431.520216,829.091749 432.396902,826.264704 L432.544997,825.78714 Z M437.564557,808.53332 L438.529234,808.796756 L438.397516,809.279094 C437.616984,812.137331 436.800181,815.026485 435.946833,817.946997 L435.806601,818.42693 L434.846736,818.146466 L434.986968,817.666533 C435.838671,814.751653 436.653869,811.868174 437.432839,809.015659 L437.564557,808.53332 Z M441.951422,791.069755 L442.925809,791.294631 L442.813371,791.781825 C442.147481,794.667126 441.441746,797.585878 440.695841,800.538629 L440.573381,801.023401 L439.603838,800.778482 L439.726298,800.29371 C440.470528,797.347586 441.174648,794.435515 441.838984,791.556949 L441.951422,791.069755 Z M445.57204,773.470324 L446.555829,773.649649 L446.466167,774.141544 C445.93531,777.05386 445.360462,780.002415 444.741236,782.987904 L444.639691,783.477484 L443.660531,783.274394 L443.762076,782.784814 C444.379672,779.807184 444.952975,776.866549 445.482377,773.962219 L445.57204,773.470324 Z M448.293873,755.714425 L449.286016,755.83953 L449.223464,756.335601 C448.853155,759.272331 448.434088,762.248267 447.9658,765.264305 L447.889087,765.758384 L446.900927,765.604957 L446.97764,765.110877 C447.444474,762.104208 447.862212,759.137712 448.23132,756.210497 L448.293873,755.714425 Z M449.945319,737.822389 L450.943494,737.882774 L450.913301,738.381862 C450.734548,741.336648 450.501655,744.333606 450.214073,747.373907 L450.166988,747.871685 L449.171432,747.777516 L449.218517,747.279738 C449.50504,744.25062 449.737059,741.264924 449.915126,738.321476 L449.945319,737.822389 Z M451.320825,719.865796 L451.329015,720.365729 C451.377534,723.327039 451.366041,726.333117 451.293902,729.385527 L451.282088,729.885387 L450.282367,729.86176 L450.294181,729.3619 C450.366006,726.322758 450.377448,723.330017 450.32915,720.382111 L450.320959,719.882178 L451.320825,719.865796 Z M450.187163,701.8381 L450.240292,702.335269 C450.555572,705.285614 450.804732,708.282346 450.987072,711.327586 L451.016957,711.826692 L450.018745,711.886462 L449.98886,711.387356 C449.807446,708.357581 449.559575,705.376348 449.245953,702.441526 L449.192825,701.944357 L450.187163,701.8381 Z M447.314631,684.007973 L447.418509,684.497063 C448.037103,687.409577 448.583879,690.368045 449.058162,693.375378 L449.136053,693.869274 L448.148262,694.025057 L448.070371,693.531162 C447.598828,690.541203 447.055255,687.600066 446.440329,684.704821 L446.33645,684.215731 L447.314631,684.007973 Z M442.532657,666.594177 L442.690712,667.068538 C443.635945,669.905403 444.505106,672.784215 445.297765,675.708993 L445.428554,676.191584 L444.463372,676.453163 L444.332583,675.970572 C443.544898,673.064147 442.681226,670.203519 441.74199,667.384649 L441.583935,666.910288 L442.532657,666.594177 Z M435.797736,649.84953 L436.00913,650.302644 C437.281518,653.029963 438.475431,655.79031 439.59115,658.589301 L439.77629,659.053761 L438.84737,659.424041 L438.66223,658.959582 C437.553611,656.178402 436.36727,653.435561 435.102901,650.725431 L434.891507,650.272317 L435.797736,649.84953 Z M427.229643,633.957993 L427.488625,634.385694 C429.058065,636.977582 430.548159,639.587288 431.960871,642.222901 L432.197082,642.663587 L431.315711,643.13601 L431.079499,642.695324 C429.675134,640.075282 428.193703,637.48075 426.633222,634.903658 L426.374241,634.475956 L427.229643,633.957993 Z M417.114236,618.995555 L417.411226,619.397795 C419.224749,621.854012 420.956609,624.304799 422.612659,626.762825 L422.892034,627.177493 L422.062698,627.736243 L421.783323,627.321575 C420.135447,624.875681 418.411873,622.436621 416.606746,619.991775 L416.309756,619.589535 L417.114236,618.995555 Z M405.859785,604.90841 L406.183468,605.289501 C408.182991,607.643658 410.08832,609.954369 411.916042,612.245931 L412.227814,612.636825 L411.446026,613.260369 L411.134254,612.869475 C409.31313,610.586185 407.414324,608.283386 405.421287,605.936865 L405.097605,605.555775 L405.859785,604.90841 Z M393.881918,591.474288 L394.220995,591.841748 C396.375623,594.176733 398.372977,596.374803 400.279181,598.512781 L400.611926,598.885984 L399.86552,599.551475 L399.532775,599.178271 C397.63058,597.044791 395.637016,594.850892 393.486075,592.519902 L393.146998,592.152442 L393.881918,591.474288 Z M381.540071,578.34021 L381.883739,578.70338 C382.518903,579.374536 382.518903,579.374536 383.154307,580.045895 C383.789797,580.717388 384.051526,580.993983 384.425391,581.389216 C385.853633,582.899088 386.978569,584.090466 388.06544,585.24508 L388.408152,585.609152 L387.680008,586.294576 L387.337296,585.930503 C386.251069,584.776574 385.12665,583.585743 383.698919,582.076412 C383.325123,581.681252 383.063447,581.404713 382.428009,580.733274 C381.79262,580.061932 381.79262,580.061932 381.157401,579.390717 L380.813732,579.027547 L381.540071,578.34021 Z M369.252875,565.186604 L369.590336,565.555549 C371.477537,567.618821 373.466869,569.763264 375.702121,572.147962 L376.044059,572.512761 L375.31446,573.196636 L374.972522,572.831837 C372.734663,570.444358 370.742631,568.297004 368.852446,566.23047 L368.514986,565.861525 L369.252875,565.186604 Z M357.418009,551.654193 L357.737779,552.038572 C359.59094,554.266164 361.529452,556.528607 363.579277,558.860477 L363.909389,559.236011 L363.158321,559.896236 L362.828208,559.520702 C360.772584,557.182233 358.828196,554.912933 356.969021,552.678112 L356.649251,552.293733 L357.418009,551.654193 Z M346.460492,537.417065 L346.75,537.824723 C348.449277,540.217483 350.23044,542.613514 352.102144,545.029035 L352.408397,545.424268 L351.617931,546.036773 L351.311678,545.64154 C349.43163,543.215251 347.642186,540.808082 345.934684,538.403739 L345.645176,537.996081 L346.460492,537.417065 Z M336.852843,522.278527 L337.099284,522.713575 C338.559144,525.290708 340.103068,527.848453 341.734097,530.396826 L342.003632,530.817956 L341.161372,531.357026 L340.891837,530.935896 C339.25124,528.372576 337.69803,525.799446 336.229187,523.206456 L335.982746,522.771408 L336.852843,522.278527 Z M328.994241,506.135102 L329.186784,506.596543 C330.336047,509.350825 331.57125,512.069342 332.893042,514.758986 L333.113569,515.207726 L332.216089,515.648781 L331.995562,515.200041 C330.664796,512.492136 329.421115,509.754961 328.263903,506.981628 L328.07136,506.520187 L328.994241,506.135102 Z M323.202367,489.159805 L323.335443,489.64177 C324.13591,492.540839 325.021453,495.393836 325.991673,498.205692 L326.15476,498.678347 L325.209451,499.004522 L325.046363,498.531867 C324.069324,495.700246 323.177568,492.827233 322.371512,489.907923 L322.238436,489.425958 L323.202367,489.159805 Z M319.550781,471.60906 L319.625153,472.103498 C320.075449,475.097154 320.606698,478.040051 321.21812,480.935731 L321.321417,481.424944 L320.34299,481.631539 L320.239693,481.142325 C319.624216,478.227436 319.089483,475.265247 318.636277,472.252241 L318.561905,471.757803 L319.550781,471.60906 Z M317.908997,453.725727 L317.930608,454.22526 C317.941332,454.473131 317.952438,454.720936 317.963928,454.968659 C318.093081,457.751333 318.284366,460.48414 318.537649,463.177068 L318.58447,463.674871 L317.588864,463.768512 L317.542043,463.270709 C317.287274,460.561984 317.094886,457.813415 316.965002,455.015006 C316.953464,454.766229 316.942311,454.517388 316.931543,454.268482 L316.909932,453.768949 L317.908997,453.725727 Z M316.832509,435.721953 L317.832063,435.751816 L317.817131,436.251593 C317.727261,439.259588 317.691259,442.252643 317.709448,445.233194 L317.712499,445.733185 L316.712518,445.739288 L316.709466,445.239297 C316.691204,442.246706 316.727351,439.241661 316.817578,436.22173 L316.832509,435.721953 Z M318.023134,417.719053 L319.018398,417.816264 L318.969793,418.313896 C318.676406,421.317662 318.433893,424.301139 318.242418,427.266924 L318.210205,427.765885 L317.212282,427.701458 L317.244496,427.202497 C317.436681,424.225706 317.680082,421.231302 317.974529,418.216685 L318.023134,417.719053 Z M320.355485,399.84392 L321.34311,400.000752 L321.264694,400.494565 C320.790114,403.483161 320.362971,406.446488 319.983248,409.387303 L319.919219,409.883186 L318.927452,409.755128 L318.991482,409.259244 C319.372454,406.308748 319.80098,403.335832 320.277069,400.337733 L320.355485,399.84392 Z M323.684332,382.117171 L324.662465,382.325149 L324.558476,382.814216 C323.927628,385.781134 323.340689,388.718227 322.797449,391.628432 L322.7057,392.119942 L321.72268,391.936444 L321.814429,391.444934 C322.35921,388.526478 322.947779,385.581227 323.580343,382.606238 L323.684332,382.117171 Z M327.852788,364.576527 L328.820861,364.827193 L328.695528,365.31123 C327.933743,368.253244 327.21252,371.161263 326.531439,374.038446 L326.416263,374.524999 L325.443155,374.294647 L325.558331,373.808094 C326.241035,370.924055 326.963937,368.009267 327.727455,365.060564 L327.852788,364.576527 Z M332.711074,347.230071 L333.669443,347.515606 L333.526675,347.99479 C332.658056,350.910214 331.827009,353.787747 331.032875,356.630844 L330.898364,357.112411 L329.93523,356.843388 L330.069741,356.361822 C330.865433,353.513147 331.698069,350.630112 332.568307,347.709255 L332.711074,347.230071 Z M338.130208,330.052022 L339.079786,330.365554 L338.92302,330.840343 C337.968075,333.732533 337.04829,336.582907 336.162728,339.395347 L336.01256,339.872264 L335.058726,339.571927 L335.208895,339.095011 C336.095861,336.278109 337.017065,333.423339 337.973442,330.526811 L338.130208,330.052022 Z M343.993535,313.028504 L344.935531,313.364129 L344.767718,313.835127 C343.74362,316.709451 342.752985,319.537657 341.794522,322.324266 L341.631896,322.79708 L340.686269,322.471829 L340.848894,321.999015 C341.808565,319.208895 342.80041,316.377234 343.825722,313.499502 L343.993535,313.028504 Z M350.209487,296.120252 L351.145202,296.473009 L350.968823,296.940866 C349.891359,299.798918 348.846423,302.605848 347.832235,305.367154 L347.659852,305.836498 L346.721164,305.491732 L346.893547,305.022388 C347.908728,302.258375 348.954656,299.448783 350.033108,296.588109 L350.209487,296.120252 Z M356.693785,279.311911 L357.624504,279.677646 L357.441637,280.143005 C356.321399,282.99378 355.233931,285.786746 354.176709,288.529016 L353.996849,288.995546 L353.063789,288.635826 L353.243649,288.169295 C354.301657,285.424985 355.389905,282.630016 356.510917,279.77727 L356.693785,279.311911 Z M363.373166,262.594117 L364.300089,262.969368 L364.112463,263.43283 C362.959636,266.280475 361.841419,269.060713 360.754025,271.783514 L360.568584,272.247854 L359.639904,271.876971 L359.825346,271.412631 C360.913333,268.688344 362.032135,265.906652 363.18554,263.057578 L363.373166,262.594117 Z M370.192439,245.942552 L371.116642,246.324454 L370.925691,246.786555 C369.747062,249.638835 368.607847,252.407864 367.50175,255.109435 L367.312301,255.572154 L366.386863,255.193254 L366.576312,254.730535 C367.682829,252.027938 368.822456,249.257911 370.001488,246.404653 L370.192439,245.942552 Z M377.115282,229.313838 L378.037704,229.700021 L377.844613,230.161232 C376.641934,233.033911 375.490632,235.791199 374.37797,238.464046 L374.185813,238.925647 L373.26261,238.541333 L373.454767,238.079732 C374.567698,235.406241 375.719259,232.648332 376.92219,229.775049 L377.115282,229.313838 Z M384.089048,212.725511 L385.010503,213.113997 L384.81626,213.574724 C383.57431,216.520525 382.42429,219.251686 381.32544,221.865408 L381.131661,222.32633 L380.209816,221.938772 L380.403595,221.47785 C381.502583,218.863799 382.652732,216.132333 383.894805,213.186239 L384.089048,212.725511 Z M391.093893,196.134481 L392.015069,196.523629 L391.820494,196.984216 C390.276188,200.639833 389.614717,202.205689 388.997551,203.667035 L388.79967,204.135596 C388.645346,204.501031 388.488175,204.873228 388.315056,205.283207 L388.120555,205.743825 L387.199318,205.354822 L387.39382,204.894204 C387.566944,204.484212 387.72412,204.112004 387.878448,203.746559 L388.010339,203.434253 L388.142668,203.120919 C388.74189,201.70209 389.410149,200.120167 390.899319,196.595068 L391.093893,196.134481 Z M398.089726,179.560805 L399.011198,179.94925 L398.816976,180.409986 C397.722868,183.00544 396.585012,185.702289 395.318835,188.701312 L395.124359,189.161941 L394.203101,188.772989 L394.397577,188.31236 C395.663687,185.313496 396.801474,182.616812 397.895504,180.021541 L398.089726,179.560805 Z M405.06948,162.958743 L405.991728,163.345343 L405.798428,163.806466 C404.667144,166.505184 403.509619,169.261811 402.310604,172.112971 L402.116778,172.573874 L401.194973,172.186222 L401.388799,171.725319 C402.587671,168.874499 403.745049,166.118221 404.87618,163.419867 L405.06948,162.958743 Z M411.355302,146.125008 L412.305784,146.435788 L412.150394,146.911029 C411.207021,149.796217 410.210923,152.633733 409.162098,155.423574 L408.986149,155.891594 L408.050111,155.539695 L408.22606,155.071676 C409.269748,152.295498 410.261033,149.47169 411.199912,146.600249 L411.355302,146.125008 Z M416.199112,128.823907 L417.171394,129.057718 L417.054488,129.543859 C416.344252,132.49731 415.58524,135.406663 414.777451,138.271915 L414.641777,138.753155 L413.679296,138.481807 L413.81497,138.000566 C414.619232,135.147826 415.374978,132.250987 416.082206,129.310048 L416.199112,128.823907 Z M419.730339,111.216831 L420.71671,111.381371 L420.63444,111.874556 C420.134645,114.870687 419.590005,117.826266 419.000515,120.741293 L418.901409,121.231372 L417.92125,121.03316 L418.020356,120.54308 C418.607571,117.639301 419.150143,114.694947 419.64807,111.710016 L419.730339,111.216831 Z M422.091829,93.3965031 L423.086528,93.4993284 L423.035116,93.9966782 C422.722841,97.01752 422.369416,100.001145 421.974836,102.947551 L421.908469,103.443127 L420.917317,103.310393 L420.983684,102.814817 C421.376924,99.8784156 421.729169,96.9047608 422.040416,93.8938528 L422.091829,93.3965031 Z M423.412019,75.4723366 L424.410855,75.5205675 L424.38674,76.0199856 C424.240293,79.0528355 424.056064,82.0515086 423.834053,85.0160053 L423.796712,85.5146091 L422.799505,85.4399281 L422.836845,84.9413244 C423.058193,81.985684 423.24188,78.9958274 423.387904,75.9717547 L423.412019,75.4723366 Z M423.8125,57.5 L424.8125,57.5 L424.8125,58 C424.8125,61.0361354 424.777744,64.0408232 424.708229,67.0140637 L424.696542,67.5139271 L423.696816,67.4905536 L423.708502,66.9906902 C423.777834,64.0252802 423.8125,61.0283833 423.8125,58 L423.8125,57.5 Z" id="Line"></path></g></g></g></g></svg>